<svg width="41" height="40" viewBox="0 0 41 40" fill="none" xmlns="http://www.w3.org/2000/svg">
<g id="Interface / Checkbox_Check">
<g id="Vector">
<path d="M7.16669 12.0003V28.0003C7.16669 29.8671 7.16669 30.8001 7.53 31.5131C7.84958 32.1403 8.35914 32.6508 8.98635 32.9703C9.69869 33.3333 10.6317 33.3333 12.4949 33.3333H28.5052C30.3684 33.3333 31.3 33.3333 32.0123 32.9703C32.6395 32.6508 33.1508 32.1403 33.4704 31.5131C33.8334 30.8008 33.8334 29.8691 33.8334 28.0059V11.9948C33.8334 10.1316 33.8334 9.19863 33.4704 8.48629C33.1508 7.85908 32.6395 7.34952 32.0123 7.02994C31.2993 6.66663 30.3672 6.66663 28.5003 6.66663H12.5003C10.6335 6.66663 9.69939 6.66663 8.98635 7.02994C8.35914 7.34952 7.84958 7.85908 7.53 8.48629C7.16669 9.19933 7.16669 10.1334 7.16669 12.0003Z" fill="url(#paint0_linear_62_4508)" fill-opacity="0.24"/>
<path d="M13.8334 20L18.8334 25L27.1667 15M7.16669 28.0003V12.0003C7.16669 10.1334 7.16669 9.19933 7.53 8.48629C7.84958 7.85908 8.35914 7.34952 8.98635 7.02994C9.69939 6.66663 10.6335 6.66663 12.5003 6.66663H28.5003C30.3672 6.66663 31.2993 6.66663 32.0123 7.02994C32.6395 7.34952 33.1508 7.85908 33.4704 8.48629C33.8334 9.19863 33.8334 10.1316 33.8334 11.9948V28.0059C33.8334 29.8691 33.8334 30.8008 33.4704 31.5131C33.1508 32.1403 32.6395 32.6508 32.0123 32.9703C31.3 33.3333 30.3684 33.3333 28.5052 33.3333H12.4949C10.6317 33.3333 9.69869 33.3333 8.98635 32.9703C8.35914 32.6508 7.84958 32.1403 7.53 31.5131C7.16669 30.8001 7.16669 29.8671 7.16669 28.0003Z" stroke="white" stroke-linecap="round" stroke-linejoin="round"/>
</g>
</g>
<defs>
<linearGradient id="paint0_linear_62_4508" x1="20.5" y1="6.66663" x2="20.5" y2="33.3333" gradientUnits="userSpaceOnUse">
<stop stop-color="white" stop-opacity="0"/>
<stop offset="1" stop-color="white"/>
</linearGradient>
</defs>
</svg>
