<svg width="163" height="234" viewBox="0 0 163 234" fill="none" xmlns="http://www.w3.org/2000/svg">
<path d="M89.7017 2.58259C89.7019 2.0598 89.9099 1.55848 90.28 1.18881C90.65 0.819137 91.1519 0.611366 91.6753 0.61116H98.5826C98.8465 0.603755 99.1091 0.649271 99.355 0.745014C99.601 0.840757 99.8252 0.984783 100.014 1.16858C100.204 1.35238 100.354 1.57221 100.457 1.81509C100.559 2.05796 100.612 2.31893 100.612 2.58259C100.612 2.84625 100.559 3.10723 100.457 3.3501C100.354 3.59297 100.204 3.81281 100.014 3.99661C99.8252 4.1804 99.601 4.32443 99.355 4.42017C99.1091 4.51592 98.8465 4.56143 98.5826 4.55403H91.6753C91.1518 4.55403 90.6499 4.34632 90.2798 3.9766C89.9096 3.60689 89.7017 3.10545 89.7017 2.58259Z" stroke="url(#paint0_radial_7_3029)"/>
<path d="M80.8208 10.4683C80.821 9.94552 81.029 9.44421 81.3991 9.07453C81.7691 8.70486 82.271 8.49709 82.7943 8.49689H106.478C106.991 8.51131 107.479 8.72533 107.838 9.09348C108.196 9.46162 108.396 9.95485 108.396 10.4683C108.396 10.9818 108.196 11.475 107.838 11.8432C107.479 12.2113 106.991 12.4253 106.478 12.4398H82.7943C82.2709 12.4398 81.7689 12.232 81.3988 11.8623C81.0287 11.4926 80.8208 10.9912 80.8208 10.4683Z" stroke="url(#paint1_radial_7_3029)"/>
<path d="M74.9002 18.3541C74.9004 17.8313 75.1084 17.3299 75.4784 16.9603C75.8485 16.5906 76.3504 16.3828 76.8737 16.3826H106.478C106.991 16.3971 107.479 16.6111 107.838 16.9792C108.196 17.3474 108.396 17.8406 108.396 18.3541C108.396 18.8675 108.196 19.3608 107.838 19.7289C107.479 20.097 106.991 20.3111 106.478 20.3255H76.8737C76.3503 20.3255 75.8483 20.1178 75.4782 19.7481C75.1081 19.3784 74.9002 18.8769 74.9002 18.3541Z" stroke="url(#paint2_radial_7_3029)"/>
<path d="M68.9796 26.2398C68.9798 25.717 69.1878 25.2157 69.5578 24.846C69.9279 24.4763 70.4297 24.2685 70.9531 24.2683H106.478C106.991 24.2828 107.479 24.4968 107.838 24.8649C108.196 25.2331 108.396 25.7263 108.396 26.2398C108.396 26.7532 108.196 27.2465 107.838 27.6146C107.479 27.9828 106.991 28.1968 106.478 28.2112H70.9531C70.4297 28.2112 69.9277 28.0035 69.5576 27.6338C69.1875 27.2641 68.9796 26.7626 68.9796 26.2398Z" stroke="url(#paint3_radial_7_3029)"/>
<path d="M63.059 34.1263C63.059 33.0371 63.9421 32.1541 65.0325 32.1541H106.478C106.994 32.1643 107.486 32.3766 107.848 32.7453C108.21 33.1139 108.413 33.6096 108.413 34.1259C108.413 34.6422 108.21 35.1379 107.848 35.5065C107.486 35.8752 106.994 36.0875 106.478 36.0977H65.0325C64.5091 36.0977 64.0071 35.89 63.637 35.5203C63.2669 35.1506 63.059 34.6491 63.059 34.1263Z" stroke="url(#paint4_radial_7_3029)"/>
<path d="M57.1383 42.012C57.1383 40.9228 58.0215 40.0406 59.1119 40.0406H106.478C107.001 40.0406 107.503 40.2483 107.873 40.618C108.243 40.9877 108.451 41.4892 108.451 42.012C108.451 42.5349 108.243 43.0363 107.873 43.406C107.503 43.7757 107.001 43.9834 106.478 43.9834H59.1119C58.5885 43.9834 58.0865 43.7757 57.7164 43.406C57.3463 43.0363 57.1383 42.5349 57.1383 42.012Z" stroke="url(#paint5_radial_7_3029)"/>
<path d="M50.231 49.8977C50.231 48.8085 51.1141 47.9263 52.2045 47.9263H106.478C107.001 47.9263 107.503 48.134 107.873 48.5037C108.243 48.8734 108.451 49.3749 108.451 49.8977C108.451 50.4206 108.243 50.922 107.873 51.2917C107.503 51.6615 107.001 51.8692 106.478 51.8692H52.2045C51.6811 51.8692 51.1791 51.6615 50.809 51.2917C50.4389 50.922 50.231 50.4206 50.231 49.8977Z" stroke="url(#paint6_radial_7_3029)"/>
<path d="M44.3103 57.7835C44.3103 56.6943 45.1935 55.812 46.2839 55.812H106.478C107.001 55.812 107.503 56.0197 107.873 56.3895C108.243 56.7592 108.451 57.2606 108.451 57.7835C108.451 58.3063 108.243 58.8078 107.873 59.1775C107.503 59.5472 107.001 59.7549 106.478 59.7549H46.2839C45.7605 59.7549 45.2585 59.5472 44.8884 59.1775C44.5183 58.8078 44.3103 58.3063 44.3103 57.7835Z" stroke="url(#paint7_radial_7_3029)"/>
<path d="M38.3897 65.6692C38.3897 64.58 39.2729 63.6978 40.3632 63.6978H106.478C107.001 63.6978 107.503 63.9055 107.873 64.2752C108.243 64.6449 108.451 65.1464 108.451 65.6692C108.451 66.1921 108.243 66.6935 107.873 67.0632C107.503 67.4329 107.001 67.6406 106.478 67.6406H40.3632C39.8398 67.6406 39.3379 67.4329 38.9677 67.0632C38.5976 66.6935 38.3897 66.1921 38.3897 65.6692Z" stroke="url(#paint8_radial_7_3029)"/>
<path d="M32.4683 73.5549C32.4685 73.032 32.6766 72.5306 33.0469 72.1609C33.4171 71.7912 33.9191 71.5835 34.4426 71.5835H106.478C106.991 71.5979 107.479 71.8119 107.838 72.1801C108.196 72.5482 108.396 73.0415 108.396 73.5549C108.396 74.0684 108.196 74.5616 107.838 74.9298C107.479 75.2979 106.991 75.5119 106.478 75.5264H34.4426C34.1834 75.5265 33.9267 75.4755 33.6872 75.3765C33.4476 75.2775 33.23 75.1323 33.0466 74.9492C32.8633 74.7661 32.7178 74.5488 32.6186 74.3095C32.5194 74.0703 32.4683 73.8139 32.4683 73.5549Z" stroke="url(#paint9_radial_7_3029)"/>
<path d="M26.5477 81.4407C26.5479 80.9179 26.7559 80.4166 27.126 80.0469C27.496 79.6772 27.9979 79.4694 28.5212 79.4692H106.478C106.991 79.4837 107.479 79.6977 107.838 80.0658C108.196 80.434 108.396 80.9272 108.396 81.4407C108.396 81.9542 108.196 82.4474 107.838 82.8155C107.479 83.1837 106.991 83.3977 106.478 83.4121H28.5212C27.9978 83.4121 27.4958 83.2044 27.1257 82.8347C26.7556 82.465 26.5477 81.9635 26.5477 81.4407Z" stroke="url(#paint10_radial_7_3029)"/>
<path d="M20.6271 89.3264C20.6273 88.8036 20.8353 88.3023 21.2053 87.9326C21.5754 87.5629 22.0773 87.3552 22.6006 87.3549H106.478C106.991 87.3694 107.479 87.5834 107.838 87.9515C108.196 88.3197 108.396 88.8129 108.396 89.3264C108.396 89.8399 108.196 90.3331 107.838 90.7012C107.479 91.0694 106.991 91.2834 106.478 91.2978H22.6006C22.0772 91.2978 21.5752 91.0901 21.2051 90.7204C20.835 90.3507 20.6271 89.8492 20.6271 89.3264Z" stroke="url(#paint11_radial_7_3029)"/>
<path d="M14.7065 97.2121C14.7067 96.6893 14.9147 96.188 15.2847 95.8183C15.6548 95.4487 16.1567 95.2409 16.68 95.2407H106.478C106.994 95.2509 107.486 95.4632 107.848 95.8319C108.21 96.2005 108.413 96.6962 108.413 97.2125C108.413 97.7288 108.21 98.2245 107.848 98.5932C107.486 98.9618 106.994 99.1741 106.478 99.1843H16.68C16.1565 99.1841 15.6546 98.9763 15.2845 98.6064C14.9144 98.2366 14.7065 97.7351 14.7065 97.2121Z" stroke="url(#paint12_radial_7_3029)"/>
<path d="M8.78586 105.099C8.78586 104.009 9.66982 103.127 10.7594 103.127H158.776C159.3 103.127 159.802 103.335 160.172 103.705C160.542 104.074 160.75 104.576 160.75 105.099C160.75 105.621 160.542 106.123 160.172 106.493C159.802 106.862 159.3 107.07 158.776 107.07H10.7594C10.236 107.07 9.73419 106.862 9.36412 106.492C8.99406 106.123 8.78606 105.621 8.78586 105.099Z" stroke="url(#paint13_radial_7_3029)"/>
<path d="M2.86523 112.984C2.86523 111.895 3.7492 111.013 4.83878 111.013H159.763C160.287 111.013 160.789 111.221 161.159 111.59C161.529 111.96 161.737 112.462 161.737 112.984C161.737 113.507 161.529 114.009 161.159 114.378C160.789 114.748 160.287 114.956 159.763 114.956H4.83878C4.31542 114.956 3.81356 114.748 3.4435 114.378C3.07343 114.008 2.86544 113.507 2.86523 112.984Z" stroke="url(#paint14_radial_7_3029)"/>
<path d="M0.891693 120.87C0.891693 119.781 1.77566 118.899 2.86523 118.899H154.829C155.353 118.899 155.855 119.106 156.225 119.476C156.595 119.846 156.803 120.347 156.803 120.87C156.803 121.393 156.595 121.894 156.225 122.264C155.855 122.634 155.353 122.842 154.829 122.842H2.86523C2.34188 122.841 1.84002 122.634 1.46996 122.264C1.09989 121.894 0.8919 121.393 0.891693 120.87Z" stroke="url(#paint15_radial_7_3029)"/>
<path d="M9.77261 128.756C9.77261 127.667 10.6566 126.784 11.7461 126.784H154.829C155.353 126.784 155.855 126.992 156.225 127.362C156.595 127.732 156.803 128.233 156.803 128.756C156.803 129.279 156.595 129.78 156.225 130.15C155.855 130.52 155.353 130.727 154.829 130.727H11.7461C11.2228 130.727 10.7209 130.519 10.3509 130.15C9.98081 129.78 9.77282 129.279 9.77261 128.756Z" stroke="url(#paint16_radial_7_3029)"/>
<path d="M147.922 136.642C147.922 137.731 147.039 138.613 145.948 138.613H56.1516C55.8924 138.613 55.6358 138.562 55.3963 138.463C55.1569 138.364 54.9393 138.219 54.7561 138.036C54.5728 137.852 54.4274 137.635 54.3283 137.396C54.2291 137.157 54.178 136.9 54.178 136.642C54.178 136.383 54.2291 136.126 54.3283 135.887C54.4274 135.648 54.5728 135.431 54.7561 135.248C54.9393 135.064 55.1569 134.919 55.3963 134.82C55.6358 134.721 55.8924 134.67 56.1516 134.67H145.948C147.039 134.67 147.922 135.553 147.922 136.642Z" stroke="url(#paint17_radial_7_3029)"/>
<path d="M142.001 144.527C142.001 145.616 141.118 146.499 140.028 146.499H56.1516C55.6282 146.499 55.1262 146.291 54.7561 145.921C54.386 145.552 54.178 145.05 54.178 144.527C54.178 144.004 54.386 143.503 54.7561 143.133C55.1262 142.764 55.6282 142.556 56.1516 142.556H140.028C141.118 142.556 142.001 143.439 142.001 144.527Z" stroke="url(#paint18_radial_7_3029)"/>
<path d="M136.081 152.413C136.081 153.502 135.197 154.384 134.107 154.384H56.1516C55.6282 154.384 55.1262 154.177 54.7561 153.807C54.386 153.437 54.178 152.936 54.178 152.413C54.178 151.89 54.386 151.389 54.7561 151.019C55.1262 150.649 55.6282 150.442 56.1516 150.442H134.107C135.197 150.442 136.081 151.325 136.081 152.413Z" stroke="url(#paint19_radial_7_3029)"/>
<path d="M130.16 160.299C130.16 161.388 129.276 162.27 128.187 162.27H56.1516C55.6282 162.27 55.1262 162.062 54.7561 161.693C54.386 161.323 54.178 160.822 54.178 160.299C54.178 159.776 54.386 159.274 54.7561 158.905C55.1262 158.535 55.6282 158.327 56.1516 158.327H128.187C128.71 158.328 129.212 158.535 129.582 158.905C129.952 159.275 130.16 159.776 130.16 160.299Z" stroke="url(#paint20_radial_7_3029)"/>
<path d="M124.239 168.185C124.239 168.708 124.031 169.209 123.661 169.579C123.291 169.949 122.789 170.156 122.266 170.157H56.1516C55.6281 170.157 55.126 169.949 54.7558 169.579C54.3856 169.209 54.1776 168.708 54.1776 168.185C54.1776 167.662 54.3856 167.16 54.7558 166.791C55.126 166.421 55.6281 166.213 56.1516 166.213H122.266C122.789 166.213 123.291 166.421 123.661 166.791C124.032 167.161 124.239 167.662 124.239 168.185Z" stroke="url(#paint21_radial_7_3029)"/>
<path d="M118.319 176.071C118.319 176.594 118.111 177.095 117.741 177.465C117.37 177.834 116.869 178.042 116.345 178.042H56.1516C55.6282 178.042 55.1262 177.835 54.7561 177.465C54.386 177.095 54.178 176.594 54.178 176.071C54.178 175.548 54.386 175.047 54.7561 174.677C55.1262 174.307 55.6282 174.1 56.1516 174.1H116.345C116.869 174.1 117.371 174.307 117.741 174.677C118.111 175.047 118.319 175.548 118.319 176.071Z" stroke="url(#paint22_radial_7_3029)"/>
<path d="M112.398 183.957C112.398 184.48 112.19 184.981 111.82 185.35C111.45 185.72 110.948 185.928 110.425 185.928H56.1516C55.6282 185.928 55.1262 185.72 54.7561 185.351C54.386 184.981 54.178 184.48 54.178 183.957C54.178 183.434 54.386 182.932 54.7561 182.563C55.1262 182.193 55.6282 181.985 56.1516 181.985H110.425C110.948 181.985 111.45 182.193 111.82 182.563C112.19 182.932 112.398 183.434 112.398 183.957Z" stroke="url(#paint23_radial_7_3029)"/>
<path d="M105.491 191.842C105.491 192.365 105.283 192.867 104.913 193.236C104.542 193.606 104.041 193.814 103.517 193.814H56.1516C55.6282 193.814 55.1262 193.606 54.7561 193.236C54.386 192.867 54.178 192.365 54.178 191.842C54.178 191.32 54.386 190.818 54.7561 190.448C55.1262 190.079 55.6282 189.871 56.1516 189.871H103.517C104.041 189.871 104.543 190.079 104.913 190.448C105.283 190.818 105.491 191.32 105.491 191.842Z" stroke="url(#paint24_radial_7_3029)"/>
<path d="M99.5702 199.728C99.5702 200.817 98.6862 201.7 97.5959 201.7H56.1516C55.6282 201.7 55.1262 201.492 54.7561 201.122C54.386 200.752 54.178 200.251 54.178 199.728C54.178 199.205 54.386 198.704 54.7561 198.334C55.1262 197.964 55.6282 197.757 56.1516 197.757H97.5959C98.6862 197.757 99.5702 198.64 99.5702 199.728Z" stroke="url(#paint25_radial_7_3029)"/>
<path d="M93.6488 207.614C93.6488 208.703 92.7656 209.585 91.6753 209.585H56.1516C55.6282 209.585 55.1262 209.378 54.7561 209.008C54.386 208.638 54.178 208.137 54.178 207.614C54.178 207.091 54.386 206.59 54.7561 206.22C55.1262 205.85 55.6282 205.642 56.1516 205.642H91.6753C92.7656 205.642 93.6488 206.525 93.6488 207.614Z" stroke="url(#paint26_radial_7_3029)"/>
<path d="M87.7282 215.5C87.7282 216.589 86.845 217.471 85.7547 217.471H56.1516C55.6282 217.471 55.1262 217.263 54.7561 216.894C54.386 216.524 54.178 216.023 54.178 215.5C54.178 214.977 54.386 214.475 54.7561 214.106C55.1262 213.736 55.6282 213.528 56.1516 213.528H85.7547C86.845 213.528 87.7282 214.411 87.7282 215.5Z" stroke="url(#paint27_radial_7_3029)"/>
<path d="M81.8076 223.385C81.8076 224.475 80.9244 225.357 79.834 225.357H56.1516C55.6282 225.357 55.1262 225.149 54.7561 224.779C54.386 224.41 54.178 223.908 54.178 223.385C54.178 222.863 54.386 222.361 54.7561 221.991C55.1262 221.622 55.6282 221.414 56.1516 221.414H79.834C80.9244 221.414 81.8076 222.297 81.8076 223.385Z" stroke="url(#paint28_radial_7_3029)"/>
<path d="M72.9266 231.271C72.9266 232.36 72.0434 233.243 70.9531 233.243H64.0457C63.5222 233.243 63.0201 233.036 62.6499 232.666C62.2797 232.296 62.0718 231.794 62.0718 231.272C62.0718 230.749 62.2797 230.247 62.6499 229.877C63.0201 229.507 63.5222 229.3 64.0457 229.3H70.9531C72.0434 229.3 72.9266 230.183 72.9266 231.271Z" stroke="url(#paint29_radial_7_3029)"/>
<defs>
<radialGradient id="paint0_radial_7_3029" cx="0" cy="0" r="1" gradientUnits="userSpaceOnUse" gradientTransform="translate(81.3146 24.9328) rotate(90) scale(224.637 155.318)">
<stop stop-color="white"/>
<stop offset="1" stop-color="white" stop-opacity="0"/>
</radialGradient>
<radialGradient id="paint1_radial_7_3029" cx="0" cy="0" r="1" gradientUnits="userSpaceOnUse" gradientTransform="translate(81.3146 24.9328) rotate(90) scale(224.637 155.318)">
<stop stop-color="white"/>
<stop offset="1" stop-color="white" stop-opacity="0"/>
</radialGradient>
<radialGradient id="paint2_radial_7_3029" cx="0" cy="0" r="1" gradientUnits="userSpaceOnUse" gradientTransform="translate(81.3146 24.9327) rotate(90) scale(224.636 155.318)">
<stop stop-color="white"/>
<stop offset="1" stop-color="white" stop-opacity="0"/>
</radialGradient>
<radialGradient id="paint3_radial_7_3029" cx="0" cy="0" r="1" gradientUnits="userSpaceOnUse" gradientTransform="translate(81.3146 24.9327) rotate(90) scale(224.636 155.318)">
<stop stop-color="white"/>
<stop offset="1" stop-color="white" stop-opacity="0"/>
</radialGradient>
<radialGradient id="paint4_radial_7_3029" cx="0" cy="0" r="1" gradientUnits="userSpaceOnUse" gradientTransform="translate(81.3146 24.9328) rotate(90) scale(224.637 155.318)">
<stop stop-color="white"/>
<stop offset="1" stop-color="white" stop-opacity="0"/>
</radialGradient>
<radialGradient id="paint5_radial_7_3029" cx="0" cy="0" r="1" gradientUnits="userSpaceOnUse" gradientTransform="translate(81.3146 24.9328) rotate(90) scale(224.636 155.318)">
<stop stop-color="white"/>
<stop offset="1" stop-color="white" stop-opacity="0"/>
</radialGradient>
<radialGradient id="paint6_radial_7_3029" cx="0" cy="0" r="1" gradientUnits="userSpaceOnUse" gradientTransform="translate(81.3146 24.9328) rotate(90) scale(224.636 155.318)">
<stop stop-color="white"/>
<stop offset="1" stop-color="white" stop-opacity="0"/>
</radialGradient>
<radialGradient id="paint7_radial_7_3029" cx="0" cy="0" r="1" gradientUnits="userSpaceOnUse" gradientTransform="translate(81.3146 24.9328) rotate(90) scale(224.636 155.318)">
<stop stop-color="white"/>
<stop offset="1" stop-color="white" stop-opacity="0"/>
</radialGradient>
<radialGradient id="paint8_radial_7_3029" cx="0" cy="0" r="1" gradientUnits="userSpaceOnUse" gradientTransform="translate(81.3146 24.9328) rotate(90) scale(224.636 155.318)">
<stop stop-color="white"/>
<stop offset="1" stop-color="white" stop-opacity="0"/>
</radialGradient>
<radialGradient id="paint9_radial_7_3029" cx="0" cy="0" r="1" gradientUnits="userSpaceOnUse" gradientTransform="translate(81.3146 24.9328) rotate(90) scale(224.636 155.318)">
<stop stop-color="white"/>
<stop offset="1" stop-color="white" stop-opacity="0"/>
</radialGradient>
<radialGradient id="paint10_radial_7_3029" cx="0" cy="0" r="1" gradientUnits="userSpaceOnUse" gradientTransform="translate(81.3146 24.9327) rotate(90) scale(224.637 155.318)">
<stop stop-color="white"/>
<stop offset="1" stop-color="white" stop-opacity="0"/>
</radialGradient>
<radialGradient id="paint11_radial_7_3029" cx="0" cy="0" r="1" gradientUnits="userSpaceOnUse" gradientTransform="translate(81.3146 24.9326) rotate(90) scale(224.637 155.318)">
<stop stop-color="white"/>
<stop offset="1" stop-color="white" stop-opacity="0"/>
</radialGradient>
<radialGradient id="paint12_radial_7_3029" cx="0" cy="0" r="1" gradientUnits="userSpaceOnUse" gradientTransform="translate(81.3146 24.9328) rotate(90) scale(224.637 155.318)">
<stop stop-color="white"/>
<stop offset="1" stop-color="white" stop-opacity="0"/>
</radialGradient>
<radialGradient id="paint13_radial_7_3029" cx="0" cy="0" r="1" gradientUnits="userSpaceOnUse" gradientTransform="translate(81.3146 24.9329) rotate(90) scale(224.636 155.318)">
<stop stop-color="white"/>
<stop offset="1" stop-color="white" stop-opacity="0"/>
</radialGradient>
<radialGradient id="paint14_radial_7_3029" cx="0" cy="0" r="1" gradientUnits="userSpaceOnUse" gradientTransform="translate(81.3146 24.9329) rotate(90) scale(224.636 155.318)">
<stop stop-color="white"/>
<stop offset="1" stop-color="white" stop-opacity="0"/>
</radialGradient>
<radialGradient id="paint15_radial_7_3029" cx="0" cy="0" r="1" gradientUnits="userSpaceOnUse" gradientTransform="translate(81.3146 24.9329) rotate(90) scale(224.636 155.318)">
<stop stop-color="white"/>
<stop offset="1" stop-color="white" stop-opacity="0"/>
</radialGradient>
<radialGradient id="paint16_radial_7_3029" cx="0" cy="0" r="1" gradientUnits="userSpaceOnUse" gradientTransform="translate(81.3146 24.9329) rotate(90) scale(224.636 155.318)">
<stop stop-color="white"/>
<stop offset="1" stop-color="white" stop-opacity="0"/>
</radialGradient>
<radialGradient id="paint17_radial_7_3029" cx="0" cy="0" r="1" gradientUnits="userSpaceOnUse" gradientTransform="translate(81.3146 24.9329) rotate(90) scale(224.636 155.318)">
<stop stop-color="white"/>
<stop offset="1" stop-color="white" stop-opacity="0"/>
</radialGradient>
<radialGradient id="paint18_radial_7_3029" cx="0" cy="0" r="1" gradientUnits="userSpaceOnUse" gradientTransform="translate(81.3146 24.9329) rotate(90) scale(224.636 155.318)">
<stop stop-color="white"/>
<stop offset="1" stop-color="white" stop-opacity="0"/>
</radialGradient>
<radialGradient id="paint19_radial_7_3029" cx="0" cy="0" r="1" gradientUnits="userSpaceOnUse" gradientTransform="translate(81.3146 24.9329) rotate(90) scale(224.636 155.318)">
<stop stop-color="white"/>
<stop offset="1" stop-color="white" stop-opacity="0"/>
</radialGradient>
<radialGradient id="paint20_radial_7_3029" cx="0" cy="0" r="1" gradientUnits="userSpaceOnUse" gradientTransform="translate(81.3146 24.9321) rotate(90) scale(224.638 155.318)">
<stop stop-color="white"/>
<stop offset="1" stop-color="white" stop-opacity="0"/>
</radialGradient>
<radialGradient id="paint21_radial_7_3029" cx="0" cy="0" r="1" gradientUnits="userSpaceOnUse" gradientTransform="translate(81.3146 24.9328) rotate(90) scale(224.637 155.318)">
<stop stop-color="white"/>
<stop offset="1" stop-color="white" stop-opacity="0"/>
</radialGradient>
<radialGradient id="paint22_radial_7_3029" cx="0" cy="0" r="1" gradientUnits="userSpaceOnUse" gradientTransform="translate(81.3146 24.933) rotate(90) scale(224.636 155.318)">
<stop stop-color="white"/>
<stop offset="1" stop-color="white" stop-opacity="0"/>
</radialGradient>
<radialGradient id="paint23_radial_7_3029" cx="0" cy="0" r="1" gradientUnits="userSpaceOnUse" gradientTransform="translate(81.3146 24.933) rotate(90) scale(224.636 155.318)">
<stop stop-color="white"/>
<stop offset="1" stop-color="white" stop-opacity="0"/>
</radialGradient>
<radialGradient id="paint24_radial_7_3029" cx="0" cy="0" r="1" gradientUnits="userSpaceOnUse" gradientTransform="translate(81.3146 24.9329) rotate(90) scale(224.636 155.318)">
<stop stop-color="white"/>
<stop offset="1" stop-color="white" stop-opacity="0"/>
</radialGradient>
<radialGradient id="paint25_radial_7_3029" cx="0" cy="0" r="1" gradientUnits="userSpaceOnUse" gradientTransform="translate(81.3146 24.933) rotate(90) scale(224.636 155.318)">
<stop stop-color="white"/>
<stop offset="1" stop-color="white" stop-opacity="0"/>
</radialGradient>
<radialGradient id="paint26_radial_7_3029" cx="0" cy="0" r="1" gradientUnits="userSpaceOnUse" gradientTransform="translate(81.3146 24.933) rotate(90) scale(224.636 155.318)">
<stop stop-color="white"/>
<stop offset="1" stop-color="white" stop-opacity="0"/>
</radialGradient>
<radialGradient id="paint27_radial_7_3029" cx="0" cy="0" r="1" gradientUnits="userSpaceOnUse" gradientTransform="translate(81.3146 24.9319) rotate(90) scale(224.638 155.318)">
<stop stop-color="white"/>
<stop offset="1" stop-color="white" stop-opacity="0"/>
</radialGradient>
<radialGradient id="paint28_radial_7_3029" cx="0" cy="0" r="1" gradientUnits="userSpaceOnUse" gradientTransform="translate(81.3146 24.933) rotate(90) scale(224.636 155.318)">
<stop stop-color="white"/>
<stop offset="1" stop-color="white" stop-opacity="0"/>
</radialGradient>
<radialGradient id="paint29_radial_7_3029" cx="0" cy="0" r="1" gradientUnits="userSpaceOnUse" gradientTransform="translate(81.3146 24.9327) rotate(90) scale(224.637 155.318)">
<stop stop-color="white"/>
<stop offset="1" stop-color="white" stop-opacity="0"/>
</radialGradient>
</defs>
</svg>
