<svg width="41" height="40" viewBox="0 0 41 40" fill="none" xmlns="http://www.w3.org/2000/svg">
<g id="Environment / Bulb">
<g id="Vector">
<path d="M10.5 15C10.5 9.47715 14.9772 5 20.5 5C26.0228 5 30.5003 9.47715 30.5003 15C30.5003 17.0242 29.8989 18.9079 28.8651 20.4822C27.2752 22.903 26.4797 24.1127 26.3765 24.2935C25.4585 25.9017 25.6285 25.3345 25.513 27.1826C25.5 27.3904 25.5 27.7048 25.5 28.3333C25.5 29.2538 24.7538 30 23.8333 30L17.1667 30C16.2462 30 15.5 29.2538 15.5 28.3333C15.5 27.7048 15.5 27.3904 15.487 27.1826C15.3715 25.3345 15.5405 25.9017 14.6225 24.2935C14.5193 24.1127 13.7251 22.903 12.1353 20.4822C11.1014 18.9079 10.5 17.0242 10.5 15Z" fill="url(#paint0_linear_62_4496)" fill-opacity="0.24"/>
<path d="M15.5 35H25.5M20.5 5C14.9772 5 10.5 9.47715 10.5 15C10.5 17.0242 11.1014 18.9079 12.1353 20.4822C13.7251 22.903 14.5193 24.1127 14.6225 24.2935C15.5405 25.9017 15.3715 25.3345 15.487 27.1826C15.5 27.3904 15.5 27.7048 15.5 28.3333C15.5 29.2538 16.2462 30 17.1667 30L23.8333 30C24.7538 30 25.5 29.2538 25.5 28.3333C25.5 27.7048 25.5 27.3904 25.513 27.1826C25.6285 25.3345 25.4585 25.9017 26.3765 24.2935C26.4797 24.1127 27.2752 22.903 28.8651 20.4822C29.8989 18.9079 30.5003 17.0242 30.5003 15C30.5003 9.47715 26.0228 5 20.5 5Z" stroke="white" stroke-linecap="round" stroke-linejoin="round"/>
</g>
</g>
<defs>
<linearGradient id="paint0_linear_62_4496" x1="20.5002" y1="5" x2="20.5002" y2="35" gradientUnits="userSpaceOnUse">
<stop stop-color="white" stop-opacity="0"/>
<stop offset="1" stop-color="white"/>
</linearGradient>
</defs>
</svg>
