<svg width="41" height="40" viewBox="0 0 41 40" fill="none" xmlns="http://www.w3.org/2000/svg">
<g id="Navigation / Compass">
<g id="Vector">
<path d="M5.5 20C5.5 28.2843 12.2157 35 20.5 35C28.7843 35 35.5 28.2843 35.5 20C35.5 11.7157 28.7843 5 20.5 5C12.2157 5 5.5 11.7157 5.5 20Z" fill="#030014"/>
<path d="M18 17.5L27.1667 13.3333L23 22.5L13.8333 26.6667L18 17.5Z" fill="#030014"/>
<path d="M5.5 20C5.5 28.2843 12.2157 35 20.5 35C28.7843 35 35.5 28.2843 35.5 20C35.5 11.7157 28.7843 5 20.5 5C12.2157 5 5.5 11.7157 5.5 20Z" stroke="white" stroke-linecap="round" stroke-linejoin="round"/>
<path d="M18 17.5L27.1667 13.3333L23 22.5L13.8333 26.6667L18 17.5Z" stroke="white" stroke-linecap="round" stroke-linejoin="round"/>
</g>
</g>
</svg>
