<svg width="705" height="322" viewBox="0 0 705 322" fill="none" xmlns="http://www.w3.org/2000/svg">
<g opacity="0.6" filter="url(#filter0_d_7_2902)">
<rect x="32.33" y="25.78" width="640" height="280.47" rx="8" fill="white" fill-opacity="0.1" shape-rendering="crispEdges"/>
<rect x="48.9999" y="34.81" width="100" height="24" rx="4" fill="white" fill-opacity="0.05"/>
<g clip-path="url(#clip0_7_2902)" filter="url(#filter1_d_7_2902)">
<rect width="638" height="184" transform="translate(33.33 121.25)" fill="white" fill-opacity="0.01"/>
<rect width="638" height="46" transform="translate(33.33 121.25)" fill="white" fill-opacity="0.15"/>
<path d="M69.3336 142.667L65.4362 146.625C65.3662 146.697 65.3308 146.732 65.2995 146.76C64.7932 147.213 64.0277 147.213 63.5215 146.76C63.4901 146.732 63.4545 146.697 63.3844 146.625C63.3144 146.554 63.2794 146.519 63.248 146.491C62.7418 146.038 61.976 146.038 61.4697 146.491C61.4385 146.519 61.4035 146.554 61.3338 146.625L58.6667 149.334M69.3336 142.667L69.3333 146.667M69.3336 142.667H65.3333" stroke="#F7F8F8" stroke-linecap="round" stroke-linejoin="round"/>
<path d="M90.066 139.164V149.02H88.61V144.708H83.682V149.02H82.226V139.164H83.682V143.476H88.61V139.164H90.066ZM91.8086 138.94H93.2646V140.508H91.8086V138.94ZM91.8646 141.852H93.2086V149.02H91.8646V141.852ZM94.4381 145.38C94.4381 144.671 94.5688 144.041 94.8301 143.49C95.1008 142.939 95.4741 142.51 95.9501 142.202C96.4355 141.894 96.9861 141.74 97.6021 141.74C98.1528 141.74 98.6335 141.875 99.0441 142.146C99.4548 142.417 99.7768 142.79 100.01 143.266C100.047 143.387 100.099 143.439 100.164 143.42C100.211 143.411 100.234 143.383 100.234 143.336C100.234 143.299 100.225 143.257 100.206 143.21C100.187 143.154 100.173 143.117 100.164 143.098C100.117 142.977 100.085 142.86 100.066 142.748C100.047 142.636 100.038 142.496 100.038 142.328V141.852H101.382V148.376C101.382 149.505 101.069 150.359 100.444 150.938C99.8281 151.526 98.9975 151.82 97.9521 151.82C96.9441 151.82 96.1601 151.596 95.6001 151.148C95.0401 150.709 94.7275 150.149 94.6621 149.468H96.0061C96.0621 149.841 96.2255 150.149 96.4961 150.392C96.7668 150.635 97.2475 150.756 97.9381 150.756C98.6195 150.756 99.1375 150.555 99.4921 150.154C99.8561 149.753 100.038 149.16 100.038 148.376C100.038 148.087 100.08 147.839 100.164 147.634C100.211 147.513 100.234 147.443 100.234 147.424C100.234 147.377 100.211 147.349 100.164 147.34H100.136C100.08 147.34 100.038 147.382 100.01 147.466C99.7768 147.961 99.4548 148.343 99.0441 148.614C98.6335 148.885 98.1528 149.02 97.6021 149.02C96.9861 149.02 96.4355 148.866 95.9501 148.558C95.4741 148.25 95.1008 147.821 94.8301 147.27C94.5688 146.719 94.4381 146.089 94.4381 145.38ZM97.9101 147.788C98.5355 147.788 99.0441 147.559 99.4361 147.102C99.8375 146.645 100.038 146.071 100.038 145.38C100.038 144.689 99.8375 144.115 99.4361 143.658C99.0441 143.201 98.5355 142.972 97.9101 142.972C97.2381 142.972 96.7155 143.196 96.3421 143.644C95.9688 144.092 95.7821 144.671 95.7821 145.38C95.7821 146.089 95.9688 146.668 96.3421 147.116C96.7155 147.564 97.2381 147.788 97.9101 147.788ZM106.898 141.74C107.747 141.74 108.401 141.987 108.858 142.482C109.325 142.977 109.558 143.737 109.558 144.764V149.02H108.214V145.044C108.214 144.26 108.065 143.709 107.766 143.392C107.477 143.075 107.075 142.916 106.562 142.916C106.207 142.916 105.862 143.033 105.526 143.266C105.199 143.49 104.929 143.812 104.714 144.232C104.509 144.652 104.406 145.133 104.406 145.674V149.02H103.062V138.94H104.406V142.328C104.406 142.664 104.355 142.981 104.252 143.28C104.224 143.373 104.205 143.443 104.196 143.49C104.196 143.537 104.219 143.565 104.266 143.574H104.294C104.341 143.574 104.383 143.532 104.42 143.448C104.523 143.196 104.691 142.939 104.924 142.678C105.157 142.407 105.442 142.183 105.778 142.006C106.123 141.829 106.497 141.74 106.898 141.74ZM110.904 145.884V144.988H114.936V145.884H110.904ZM120.169 139.164C121.485 139.164 122.433 139.439 123.011 139.99C123.599 140.541 123.893 141.292 123.893 142.244C123.893 143.168 123.595 143.915 122.997 144.484C122.409 145.044 121.541 145.324 120.393 145.324H117.957V149.02H116.501V139.164H120.169ZM120.379 144.092C121.033 144.092 121.537 143.924 121.891 143.588C122.255 143.243 122.437 142.795 122.437 142.244C122.437 141.656 122.26 141.203 121.905 140.886C121.56 140.559 121.051 140.396 120.379 140.396H117.957V144.092H120.379ZM131.291 145.338C131.291 145.506 131.277 145.669 131.249 145.828H125.901C125.948 146.425 126.167 146.92 126.559 147.312C126.951 147.704 127.46 147.9 128.085 147.9C128.552 147.9 128.916 147.793 129.177 147.578C129.448 147.354 129.648 147.027 129.779 146.598H131.165C131.006 147.326 130.661 147.933 130.129 148.418C129.606 148.894 128.916 149.132 128.057 149.132C127.329 149.132 126.699 148.969 126.167 148.642C125.644 148.315 125.248 147.872 124.977 147.312C124.706 146.752 124.571 146.127 124.571 145.436C124.571 144.727 124.716 144.092 125.005 143.532C125.294 142.972 125.7 142.533 126.223 142.216C126.755 141.899 127.357 141.74 128.029 141.74C128.589 141.74 129.116 141.871 129.611 142.132C130.115 142.384 130.521 142.781 130.829 143.322C131.137 143.863 131.291 144.535 131.291 145.338ZM129.947 144.708C129.9 144.167 129.714 143.733 129.387 143.406C129.06 143.079 128.631 142.916 128.099 142.916C127.474 142.916 126.988 143.079 126.643 143.406C126.307 143.733 126.083 144.167 125.971 144.708H129.947ZM133.661 143.518C133.708 143.518 133.75 143.476 133.787 143.392C133.955 142.972 134.128 142.65 134.305 142.426C134.483 142.193 134.735 142.02 135.061 141.908C135.397 141.796 135.859 141.74 136.447 141.74V143.112C136.335 143.103 136.181 143.098 135.985 143.098C135.155 143.098 134.576 143.294 134.249 143.686C133.923 144.069 133.759 144.703 133.759 145.59V149.02H132.415V141.852H133.759V142.328C133.759 142.608 133.708 142.921 133.605 143.266C133.587 143.341 133.577 143.392 133.577 143.42C133.577 143.476 133.601 143.509 133.647 143.518H133.661ZM140.314 140.116C139.931 140.116 139.674 140.191 139.544 140.34C139.422 140.489 139.362 140.769 139.362 141.18V141.852H141.378V143.028H139.362V149.02H138.018V143.028H136.898V141.852H138.018V141.04C138.018 140.275 138.19 139.733 138.536 139.416C138.89 139.099 139.446 138.94 140.202 138.94H141.378V140.116H140.314ZM145.297 141.74C145.997 141.74 146.608 141.903 147.131 142.23C147.663 142.557 148.069 143.005 148.349 143.574C148.629 144.134 148.769 144.755 148.769 145.436C148.769 146.117 148.629 146.743 148.349 147.312C148.069 147.872 147.663 148.315 147.131 148.642C146.608 148.969 145.997 149.132 145.297 149.132C144.597 149.132 143.981 148.969 143.449 148.642C142.926 148.315 142.525 147.872 142.245 147.312C141.965 146.743 141.825 146.117 141.825 145.436C141.825 144.755 141.965 144.134 142.245 143.574C142.525 143.005 142.926 142.557 143.449 142.23C143.981 141.903 144.597 141.74 145.297 141.74ZM145.297 147.9C145.95 147.9 146.468 147.667 146.851 147.2C147.234 146.724 147.425 146.136 147.425 145.436C147.425 144.736 147.234 144.153 146.851 143.686C146.468 143.21 145.95 142.972 145.297 142.972C144.644 142.972 144.126 143.21 143.743 143.686C143.36 144.153 143.169 144.736 143.169 145.436C143.169 146.136 143.36 146.724 143.743 147.2C144.126 147.667 144.644 147.9 145.297 147.9ZM151.134 143.518C151.181 143.518 151.223 143.476 151.26 143.392C151.428 142.972 151.601 142.65 151.778 142.426C151.955 142.193 152.207 142.02 152.534 141.908C152.87 141.796 153.332 141.74 153.92 141.74V143.112C153.808 143.103 153.654 143.098 153.458 143.098C152.627 143.098 152.049 143.294 151.722 143.686C151.395 144.069 151.232 144.703 151.232 145.59V149.02H149.888V141.852H151.232V142.328C151.232 142.608 151.181 142.921 151.078 143.266C151.059 143.341 151.05 143.392 151.05 143.42C151.05 143.476 151.073 143.509 151.12 143.518H151.134ZM162.563 141.74C163.301 141.74 163.889 141.969 164.327 142.426C164.775 142.874 164.999 143.616 164.999 144.652V149.02H163.655V144.484C163.655 143.439 163.184 142.916 162.241 142.916C161.971 142.916 161.709 143 161.457 143.168C161.215 143.327 161.014 143.56 160.855 143.868C160.706 144.176 160.631 144.54 160.631 144.96V149.02H159.287V144.652C159.287 144.083 159.185 143.653 158.979 143.364C158.774 143.065 158.447 142.916 157.999 142.916C157.71 142.916 157.43 143.014 157.159 143.21C156.889 143.406 156.669 143.686 156.501 144.05C156.343 144.405 156.263 144.811 156.263 145.268V149.02H154.919V141.852H156.263V142.328C156.263 142.608 156.212 142.911 156.109 143.238C156.109 143.257 156.1 143.289 156.081 143.336C156.072 143.373 156.072 143.406 156.081 143.434C156.091 143.453 156.109 143.467 156.137 143.476H156.179C156.226 143.476 156.263 143.439 156.291 143.364C156.469 142.869 156.749 142.477 157.131 142.188C157.523 141.889 157.962 141.74 158.447 141.74C158.895 141.74 159.287 141.885 159.623 142.174C159.959 142.454 160.179 142.818 160.281 143.266C160.3 143.341 160.347 143.378 160.421 143.378C160.496 143.378 160.547 143.341 160.575 143.266C160.762 142.781 161.028 142.407 161.373 142.146C161.728 141.875 162.125 141.74 162.563 141.74ZM166.12 147.018C166.12 145.646 166.978 144.899 168.696 144.778L169.508 144.736C170.124 144.717 170.572 144.671 170.852 144.596C171.141 144.521 171.281 144.353 171.272 144.092C171.253 143.308 170.646 142.916 169.452 142.916C168.854 142.916 168.42 143.019 168.15 143.224C167.879 143.42 167.716 143.709 167.66 144.092H166.344C166.465 143.299 166.806 142.711 167.366 142.328C167.926 141.936 168.64 141.74 169.508 141.74C170.45 141.74 171.202 141.973 171.762 142.44C172.331 142.897 172.616 143.728 172.616 144.932V149.02H171.272V148.334C171.272 148.073 171.323 147.793 171.426 147.494C171.435 147.466 171.444 147.429 171.454 147.382C171.463 147.335 171.463 147.298 171.454 147.27C171.454 147.242 171.44 147.223 171.412 147.214L171.37 147.2C171.323 147.2 171.29 147.223 171.272 147.27C171.262 147.317 171.253 147.345 171.244 147.354C171.038 147.895 170.702 148.329 170.236 148.656C169.769 148.973 169.218 149.132 168.584 149.132C168.136 149.132 167.72 149.043 167.338 148.866C166.964 148.679 166.666 148.427 166.442 148.11C166.227 147.783 166.12 147.419 166.12 147.018ZM171.272 145.156C171.113 145.352 170.889 145.487 170.6 145.562C170.32 145.637 169.9 145.711 169.34 145.786C169.237 145.795 169.05 145.819 168.78 145.856C168.332 145.921 168 146.043 167.786 146.22C167.571 146.388 167.464 146.631 167.464 146.948C167.464 147.228 167.566 147.461 167.772 147.648C167.986 147.835 168.299 147.928 168.71 147.928C169.148 147.928 169.559 147.835 169.942 147.648C170.334 147.452 170.651 147.149 170.894 146.738C171.146 146.318 171.272 145.791 171.272 145.156ZM178.019 141.74C178.868 141.74 179.522 141.987 179.979 142.482C180.446 142.977 180.679 143.737 180.679 144.764V149.02H179.335V145.044C179.335 144.26 179.186 143.709 178.887 143.392C178.598 143.075 178.196 142.916 177.683 142.916C177.328 142.916 176.983 143.033 176.647 143.266C176.32 143.49 176.05 143.812 175.835 144.232C175.63 144.652 175.527 145.133 175.527 145.674V149.02H174.183V141.852H175.527V142.328C175.527 142.664 175.476 142.981 175.373 143.28C175.345 143.373 175.326 143.443 175.317 143.49C175.317 143.537 175.34 143.565 175.387 143.574H175.415C175.462 143.574 175.504 143.532 175.541 143.448C175.644 143.196 175.812 142.939 176.045 142.678C176.278 142.407 176.563 142.183 176.899 142.006C177.244 141.829 177.618 141.74 178.019 141.74ZM181.801 145.436C181.801 144.755 181.941 144.134 182.221 143.574C182.501 143.005 182.903 142.557 183.425 142.23C183.957 141.903 184.587 141.74 185.315 141.74C185.941 141.74 186.487 141.871 186.953 142.132C187.429 142.384 187.798 142.725 188.059 143.154C188.321 143.574 188.475 144.036 188.521 144.54H187.205C187.14 144.101 186.944 143.733 186.617 143.434C186.291 143.126 185.861 142.972 185.329 142.972C184.891 142.972 184.503 143.084 184.167 143.308C183.841 143.532 183.589 143.831 183.411 144.204C183.234 144.577 183.145 144.988 183.145 145.436C183.145 145.884 183.234 146.295 183.411 146.668C183.589 147.041 183.841 147.34 184.167 147.564C184.503 147.788 184.891 147.9 185.329 147.9C185.861 147.9 186.291 147.751 186.617 147.452C186.944 147.144 187.14 146.771 187.205 146.332H188.521C188.475 146.836 188.321 147.303 188.059 147.732C187.798 148.152 187.434 148.493 186.967 148.754C186.501 149.006 185.95 149.132 185.315 149.132C184.606 149.132 183.985 148.969 183.453 148.642C182.921 148.315 182.511 147.872 182.221 147.312C181.941 146.743 181.801 146.117 181.801 145.436ZM196.137 145.338C196.137 145.506 196.123 145.669 196.095 145.828H190.747C190.793 146.425 191.013 146.92 191.405 147.312C191.797 147.704 192.305 147.9 192.931 147.9C193.397 147.9 193.761 147.793 194.023 147.578C194.293 147.354 194.494 147.027 194.625 146.598H196.011C195.852 147.326 195.507 147.933 194.975 148.418C194.452 148.894 193.761 149.132 192.903 149.132C192.175 149.132 191.545 148.969 191.013 148.642C190.49 148.315 190.093 147.872 189.823 147.312C189.552 146.752 189.417 146.127 189.417 145.436C189.417 144.727 189.561 144.092 189.851 143.532C190.14 142.972 190.546 142.533 191.069 142.216C191.601 141.899 192.203 141.74 192.875 141.74C193.435 141.74 193.962 141.871 194.457 142.132C194.961 142.384 195.367 142.781 195.675 143.322C195.983 143.863 196.137 144.535 196.137 145.338ZM194.793 144.708C194.746 144.167 194.559 143.733 194.233 143.406C193.906 143.079 193.477 142.916 192.945 142.916C192.319 142.916 191.834 143.079 191.489 143.406C191.153 143.733 190.929 144.167 190.817 144.708H194.793Z" fill="#F7F8F8"/>
<g clip-path="url(#clip1_7_2902)">
<path d="M65.6728 190.783C65.6728 192.887 63.9673 194.593 61.8633 194.593L61.863 186.974C63.967 186.974 65.6728 188.679 65.6728 190.783Z" fill="#8A8F98"/>
<path fill-rule="evenodd" clip-rule="evenodd" d="M61.8633 196.65C65.1034 196.65 67.73 194.023 67.73 190.783C67.73 187.543 65.1034 184.917 61.8633 184.917C58.6232 184.917 55.9966 187.543 55.9966 190.783C55.9966 194.023 58.6232 196.65 61.8633 196.65ZM61.8633 198.25C65.987 198.25 69.33 194.907 69.33 190.783C69.33 186.66 65.987 183.317 61.8633 183.317C57.7396 183.317 54.3966 186.66 54.3966 190.783C54.3966 194.907 57.7396 198.25 61.8633 198.25Z" fill="#8A8F98"/>
</g>
<path d="M90.7561 187.02H89.5232C89.4502 186.665 89.3226 186.354 89.1403 186.085C88.9614 185.817 88.7426 185.592 88.4841 185.409C88.2289 185.224 87.9455 185.084 87.6339 184.992C87.3224 184.899 86.9976 184.852 86.6595 184.852C86.043 184.852 85.4846 185.008 84.9841 185.32C84.4869 185.631 84.0909 186.09 83.7959 186.697C83.5042 187.303 83.3584 188.047 83.3584 188.929C83.3584 189.811 83.5042 190.555 83.7959 191.161C84.0909 191.768 84.4869 192.227 84.9841 192.538C85.4846 192.85 86.043 193.006 86.6595 193.006C86.9976 193.006 87.3224 192.959 87.6339 192.867C87.9455 192.774 88.2289 192.636 88.4841 192.454C88.7426 192.268 88.9614 192.041 89.1403 191.773C89.3226 191.501 89.4502 191.19 89.5232 190.838H90.7561C90.6633 191.359 90.4943 191.824 90.249 192.235C90.0037 192.646 89.6988 192.996 89.3342 193.284C88.9696 193.569 88.5603 193.786 88.1062 193.936C87.6555 194.085 87.1732 194.159 86.6595 194.159C85.7911 194.159 85.0189 193.947 84.3428 193.523C83.6666 193.099 83.1347 192.495 82.7469 191.713C82.3591 190.931 82.1652 190.003 82.1652 188.929C82.1652 187.855 82.3591 186.927 82.7469 186.145C83.1347 185.363 83.6666 184.76 84.3428 184.335C85.0189 183.911 85.7911 183.699 86.6595 183.699C87.1732 183.699 87.6555 183.774 88.1062 183.923C88.5603 184.072 88.9696 184.291 89.3342 184.579C89.6988 184.864 90.0037 185.212 90.249 185.623C90.4943 186.031 90.6633 186.496 90.7561 187.02ZM95.6917 194.179C95.0023 194.179 94.3974 194.015 93.877 193.687C93.36 193.359 92.9556 192.9 92.664 192.31C92.3756 191.72 92.2314 191.03 92.2314 190.242C92.2314 189.446 92.3756 188.752 92.664 188.159C92.9556 187.565 93.36 187.105 93.877 186.776C94.3974 186.448 95.0023 186.284 95.6917 186.284C96.381 186.284 96.9843 186.448 97.5013 186.776C98.0217 187.105 98.426 187.565 98.7144 188.159C99.006 188.752 99.1519 189.446 99.1519 190.242C99.1519 191.03 99.006 191.72 98.7144 192.31C98.426 192.9 98.0217 193.359 97.5013 193.687C96.9843 194.015 96.381 194.179 95.6917 194.179ZM95.6917 193.125C96.2153 193.125 96.6462 192.991 96.9843 192.722C97.3223 192.454 97.5726 192.101 97.735 191.663C97.8974 191.226 97.9786 190.752 97.9786 190.242C97.9786 189.731 97.8974 189.256 97.735 188.815C97.5726 188.374 97.3223 188.018 96.9843 187.746C96.6462 187.474 96.2153 187.338 95.6917 187.338C95.168 187.338 94.7371 187.474 94.399 187.746C94.061 188.018 93.8107 188.374 93.6483 188.815C93.4859 189.256 93.4047 189.731 93.4047 190.242C93.4047 190.752 93.4859 191.226 93.6483 191.663C93.8107 192.101 94.061 192.454 94.399 192.722C94.7371 192.991 95.168 193.125 95.6917 193.125ZM100.943 194.02V186.384H102.076V187.577H102.176C102.335 187.169 102.592 186.853 102.946 186.627C103.301 186.399 103.727 186.284 104.224 186.284C104.728 186.284 105.147 186.399 105.482 186.627C105.82 186.853 106.084 187.169 106.272 187.577H106.352C106.548 187.182 106.841 186.869 107.232 186.637C107.623 186.402 108.092 186.284 108.639 186.284C109.322 186.284 109.88 186.498 110.314 186.926C110.749 187.35 110.966 188.011 110.966 188.909V194.02H109.792V188.909C109.792 188.346 109.638 187.943 109.33 187.701C109.022 187.459 108.659 187.338 108.241 187.338C107.704 187.338 107.288 187.501 106.993 187.825C106.698 188.147 106.551 188.555 106.551 189.048V194.02H105.358V188.79C105.358 188.356 105.217 188.006 104.935 187.741C104.653 187.472 104.29 187.338 103.846 187.338C103.541 187.338 103.256 187.419 102.991 187.582C102.729 187.744 102.517 187.97 102.355 188.258C102.196 188.543 102.116 188.873 102.116 189.247V194.02H100.943ZM113.111 194.02V186.384H114.244V187.577H114.344C114.503 187.169 114.76 186.853 115.114 186.627C115.469 186.399 115.895 186.284 116.392 186.284C116.896 186.284 117.315 186.399 117.65 186.627C117.988 186.853 118.251 187.169 118.44 187.577H118.52C118.716 187.182 119.009 186.869 119.4 186.637C119.791 186.402 120.26 186.284 120.807 186.284C121.49 186.284 122.048 186.498 122.482 186.926C122.917 187.35 123.134 188.011 123.134 188.909V194.02H121.96V188.909C121.96 188.346 121.806 187.943 121.498 187.701C121.19 187.459 120.827 187.338 120.409 187.338C119.872 187.338 119.456 187.501 119.161 187.825C118.866 188.147 118.719 188.555 118.719 189.048V194.02H117.526V188.79C117.526 188.356 117.385 188.006 117.103 187.741C116.821 187.472 116.458 187.338 116.014 187.338C115.709 187.338 115.424 187.419 115.159 187.582C114.897 187.744 114.685 187.97 114.523 188.258C114.364 188.543 114.284 188.873 114.284 189.247V194.02H113.111ZM130.091 190.898V186.384H131.265V194.02H130.091V192.727H130.012C129.833 193.115 129.554 193.445 129.177 193.717C128.799 193.985 128.321 194.119 127.745 194.119C127.267 194.119 126.843 194.015 126.472 193.806C126.101 193.594 125.809 193.276 125.597 192.852C125.385 192.424 125.279 191.886 125.279 191.236V186.384H126.452V191.156C126.452 191.713 126.608 192.157 126.919 192.489C127.234 192.82 127.635 192.986 128.123 192.986C128.414 192.986 128.711 192.911 129.012 192.762C129.317 192.613 129.573 192.384 129.778 192.076C129.987 191.768 130.091 191.375 130.091 190.898ZM134.587 189.426V194.02H133.414V186.384H134.547V187.577H134.647C134.826 187.189 135.097 186.878 135.462 186.642C135.826 186.404 136.297 186.284 136.874 186.284C137.391 186.284 137.843 186.39 138.231 186.602C138.619 186.811 138.92 187.129 139.136 187.557C139.351 187.981 139.459 188.518 139.459 189.168V194.02H138.286V189.247C138.286 188.647 138.13 188.18 137.818 187.845C137.507 187.507 137.079 187.338 136.536 187.338C136.161 187.338 135.826 187.419 135.531 187.582C135.24 187.744 135.009 187.981 134.84 188.293C134.671 188.604 134.587 188.982 134.587 189.426ZM141.603 194.02V186.384H142.776V194.02H141.603ZM142.2 185.111C141.971 185.111 141.774 185.033 141.608 184.877C141.446 184.721 141.364 184.534 141.364 184.315C141.364 184.097 141.446 183.909 141.608 183.754C141.774 183.598 141.971 183.52 142.2 183.52C142.428 183.52 142.624 183.598 142.786 183.754C142.952 183.909 143.035 184.097 143.035 184.315C143.035 184.534 142.952 184.721 142.786 184.877C142.624 185.033 142.428 185.111 142.2 185.111ZM148.246 186.384V187.378H144.289V186.384H148.246ZM145.442 184.554H146.616V191.833C146.616 192.164 146.664 192.413 146.76 192.578C146.859 192.741 146.985 192.85 147.138 192.906C147.293 192.959 147.458 192.986 147.63 192.986C147.759 192.986 147.865 192.979 147.948 192.966C148.031 192.949 148.097 192.936 148.147 192.926L148.386 193.98C148.306 194.01 148.195 194.04 148.052 194.07C147.91 194.103 147.729 194.119 147.511 194.119C147.179 194.119 146.854 194.048 146.536 193.906C146.221 193.763 145.959 193.546 145.751 193.254C145.545 192.963 145.442 192.595 145.442 192.151V184.554ZM150.767 196.884C150.568 196.884 150.391 196.867 150.235 196.834C150.079 196.804 149.971 196.774 149.912 196.744L150.21 195.71C150.495 195.783 150.747 195.81 150.966 195.79C151.185 195.77 151.378 195.672 151.547 195.497C151.72 195.324 151.877 195.044 152.02 194.656L152.239 194.06L149.415 186.384H150.687L152.795 192.469H152.875L154.983 186.384H156.256L153.014 195.134C152.868 195.528 152.688 195.855 152.472 196.113C152.257 196.375 152.007 196.569 151.721 196.695C151.44 196.821 151.122 196.884 150.767 196.884ZM162.179 189.108V190.202H157.725V189.108H162.179ZM164.403 194.02V183.838H170.508V184.932H165.636V188.372H170.05V189.466H165.636V194.02H164.403ZM175.002 194.179C174.313 194.179 173.708 194.015 173.188 193.687C172.671 193.359 172.266 192.9 171.975 192.31C171.686 191.72 171.542 191.03 171.542 190.242C171.542 189.446 171.686 188.752 171.975 188.159C172.266 187.565 172.671 187.105 173.188 186.776C173.708 186.448 174.313 186.284 175.002 186.284C175.692 186.284 176.295 186.448 176.812 186.776C177.332 187.105 177.737 187.565 178.025 188.159C178.317 188.752 178.462 189.446 178.462 190.242C178.462 191.03 178.317 191.72 178.025 192.31C177.737 192.9 177.332 193.359 176.812 193.687C176.295 194.015 175.692 194.179 175.002 194.179ZM175.002 193.125C175.526 193.125 175.957 192.991 176.295 192.722C176.633 192.454 176.883 192.101 177.046 191.663C177.208 191.226 177.289 190.752 177.289 190.242C177.289 189.731 177.208 189.256 177.046 188.815C176.883 188.374 176.633 188.018 176.295 187.746C175.957 187.474 175.526 187.338 175.002 187.338C174.479 187.338 174.048 187.474 173.71 187.746C173.372 188.018 173.121 188.374 172.959 188.815C172.796 189.256 172.715 189.731 172.715 190.242C172.715 190.752 172.796 191.226 172.959 191.663C173.121 192.101 173.372 192.454 173.71 192.722C174.048 192.991 174.479 193.125 175.002 193.125ZM183.356 194.179C182.64 194.179 182.023 194.01 181.506 193.672C180.989 193.334 180.592 192.868 180.313 192.275C180.035 191.682 179.895 191.004 179.895 190.242C179.895 189.466 180.038 188.782 180.323 188.188C180.611 187.592 181.012 187.126 181.526 186.791C182.043 186.453 182.646 186.284 183.336 186.284C183.873 186.284 184.357 186.384 184.788 186.583C185.218 186.781 185.571 187.06 185.846 187.418C186.122 187.776 186.292 188.193 186.359 188.671H185.185C185.096 188.323 184.897 188.014 184.589 187.746C184.284 187.474 183.873 187.338 183.356 187.338C182.898 187.338 182.497 187.458 182.153 187.696C181.811 187.931 181.544 188.265 181.352 188.695C181.163 189.123 181.069 189.625 181.069 190.202C181.069 190.792 181.162 191.306 181.347 191.743C181.536 192.181 181.801 192.52 182.143 192.762C182.487 193.004 182.892 193.125 183.356 193.125C183.661 193.125 183.937 193.072 184.186 192.966C184.435 192.86 184.645 192.708 184.817 192.509C184.99 192.31 185.112 192.071 185.185 191.793H186.359C186.292 192.244 186.128 192.65 185.866 193.011C185.608 193.369 185.265 193.654 184.837 193.866C184.413 194.075 183.919 194.179 183.356 194.179ZM192.886 190.898V186.384H194.06V194.02H192.886V192.727H192.807C192.628 193.115 192.349 193.445 191.971 193.717C191.594 193.985 191.116 194.119 190.54 194.119C190.062 194.119 189.638 194.015 189.267 193.806C188.896 193.594 188.604 193.276 188.392 192.852C188.18 192.424 188.074 191.886 188.074 191.236V186.384H189.247V191.156C189.247 191.713 189.403 192.157 189.714 192.489C190.029 192.82 190.43 192.986 190.918 192.986C191.209 192.986 191.506 192.911 191.807 192.762C192.112 192.613 192.368 192.384 192.573 192.076C192.782 191.768 192.886 191.375 192.886 190.898ZM201.618 188.094L200.564 188.392C200.497 188.217 200.4 188.046 200.27 187.88C200.144 187.711 199.972 187.572 199.753 187.462C199.535 187.353 199.254 187.298 198.913 187.298C198.446 187.298 198.056 187.406 197.745 187.622C197.437 187.834 197.282 188.104 197.282 188.432C197.282 188.724 197.388 188.954 197.601 189.123C197.813 189.292 198.144 189.433 198.595 189.546L199.728 189.824C200.411 189.99 200.92 190.243 201.255 190.585C201.589 190.923 201.757 191.359 201.757 191.892C201.757 192.33 201.631 192.721 201.379 193.065C201.13 193.41 200.782 193.682 200.335 193.881C199.887 194.08 199.367 194.179 198.774 194.179C197.995 194.179 197.35 194.01 196.84 193.672C196.329 193.334 196.006 192.84 195.87 192.19L196.984 191.912C197.09 192.323 197.291 192.631 197.586 192.837C197.884 193.042 198.273 193.145 198.754 193.145C199.301 193.145 199.735 193.029 200.057 192.797C200.381 192.562 200.544 192.28 200.544 191.952C200.544 191.687 200.451 191.465 200.265 191.286C200.08 191.103 199.795 190.967 199.41 190.878L198.137 190.58C197.438 190.414 196.924 190.157 196.596 189.809C196.271 189.458 196.109 189.019 196.109 188.492C196.109 188.061 196.23 187.68 196.472 187.348C196.717 187.017 197.05 186.757 197.471 186.568C197.896 186.379 198.376 186.284 198.913 186.284C199.669 186.284 200.262 186.45 200.693 186.781C201.127 187.113 201.435 187.55 201.618 188.094Z" fill="#F7F8F8"/>
<path d="M56.33 236.25H55.33C54.7777 236.25 54.33 236.698 54.33 237.25V241.25C54.33 241.802 54.7777 242.25 55.33 242.25H56.33C56.8823 242.25 57.33 241.802 57.33 241.25V237.25C57.33 236.698 56.8823 236.25 56.33 236.25Z" fill="#8A8F98"/>
<path d="M61.33 233.25H60.33C59.7777 233.25 59.33 233.698 59.33 234.25V241.25C59.33 241.802 59.7777 242.25 60.33 242.25H61.33C61.8823 242.25 62.33 241.802 62.33 241.25V234.25C62.33 233.698 61.8823 233.25 61.33 233.25Z" fill="#8A8F98"/>
<path d="M66.33 230.25H65.33C64.7777 230.25 64.33 230.698 64.33 231.25V241.25C64.33 241.802 64.7777 242.25 65.33 242.25H66.33C66.8823 242.25 67.33 241.802 67.33 241.25V231.25C67.33 230.698 66.8823 230.25 66.33 230.25Z" fill="#8A8F98"/>
<path d="M82.5629 240.02V229.838H86.1226C86.8319 229.838 87.4169 229.961 87.8776 230.206C88.3383 230.448 88.6813 230.775 88.9067 231.186C89.1321 231.593 89.2447 232.046 89.2447 232.543C89.2447 232.98 89.1669 233.342 89.0111 233.627C88.8586 233.912 88.6564 234.137 88.4045 234.303C88.156 234.468 87.8858 234.591 87.5942 234.671V234.77C87.9057 234.79 88.2189 234.899 88.5338 235.098C88.8487 235.297 89.1122 235.582 89.3243 235.953C89.5364 236.324 89.6425 236.779 89.6425 237.315C89.6425 237.826 89.5265 238.285 89.2945 238.693C89.0625 239.1 88.6962 239.423 88.1957 239.662C87.6953 239.901 87.044 240.02 86.2419 240.02H82.5629ZM83.7959 238.926H86.2419C87.0473 238.926 87.619 238.77 87.9571 238.459C88.2985 238.144 88.4692 237.763 88.4692 237.315C88.4692 236.971 88.3813 236.653 88.2057 236.361C88.03 236.066 87.7798 235.831 87.455 235.655C87.1302 235.476 86.7457 235.386 86.3016 235.386H83.7959V238.926ZM83.7959 234.313H86.0828C86.454 234.313 86.7888 234.24 87.0871 234.094C87.3887 233.948 87.6273 233.743 87.803 233.477C87.982 233.212 88.0714 232.901 88.0714 232.543C88.0714 232.095 87.9157 231.716 87.6041 231.404C87.2926 231.089 86.7987 230.932 86.1226 230.932H83.7959V234.313ZM93.7565 240.199C93.2726 240.199 92.8334 240.108 92.439 239.926C92.0446 239.74 91.7314 239.473 91.4994 239.125C91.2674 238.774 91.1513 238.35 91.1513 237.852C91.1513 237.415 91.2375 237.06 91.4099 236.788C91.5822 236.513 91.8126 236.298 92.1009 236.142C92.3893 235.986 92.7075 235.87 93.0555 235.794C93.4068 235.715 93.7598 235.652 94.1144 235.605C94.5784 235.546 94.9546 235.501 95.243 235.471C95.5346 235.438 95.7468 235.383 95.8793 235.307C96.0152 235.231 96.0832 235.098 96.0832 234.909V234.869C96.0832 234.379 95.9489 233.998 95.6805 233.726C95.4153 233.454 95.0126 233.318 94.4724 233.318C93.9122 233.318 93.4731 233.441 93.1549 233.686C92.8367 233.931 92.613 234.193 92.4837 234.472L91.3701 234.074C91.569 233.61 91.8341 233.249 92.1656 232.99C92.5003 232.728 92.8649 232.546 93.2593 232.443C93.657 232.337 94.0481 232.284 94.4326 232.284C94.6779 232.284 94.9596 232.314 95.2778 232.374C95.5993 232.43 95.9092 232.548 96.2075 232.727C96.5091 232.906 96.7593 233.176 96.9582 233.537C97.157 233.898 97.2565 234.382 97.2565 234.989V240.02H96.0832V238.986H96.0235C95.944 239.152 95.8114 239.329 95.6258 239.518C95.4402 239.707 95.1933 239.868 94.885 240C94.5768 240.133 94.2006 240.199 93.7565 240.199ZM93.9354 239.145C94.3995 239.145 94.7906 239.054 95.1087 238.872C95.4302 238.689 95.6722 238.454 95.8346 238.166C96.0003 237.877 96.0832 237.574 96.0832 237.256V236.182C96.0335 236.242 95.9241 236.296 95.755 236.346C95.5893 236.392 95.3971 236.434 95.1783 236.47C94.9629 236.503 94.7524 236.533 94.5469 236.56C94.3448 236.583 94.1807 236.603 94.0548 236.619C93.7498 236.659 93.4648 236.724 93.1996 236.813C92.9378 236.9 92.7257 237.03 92.5633 237.206C92.4042 237.378 92.3246 237.614 92.3246 237.912C92.3246 238.32 92.4754 238.628 92.7771 238.837C93.082 239.042 93.4681 239.145 93.9354 239.145ZM102.5 240.179C101.784 240.179 101.168 240.01 100.651 239.672C100.134 239.334 99.736 238.868 99.4576 238.275C99.1792 237.682 99.04 237.004 99.04 236.242C99.04 235.466 99.1825 234.782 99.4676 234.188C99.7559 233.592 100.157 233.126 100.671 232.791C101.188 232.453 101.791 232.284 102.48 232.284C103.017 232.284 103.501 232.384 103.932 232.583C104.363 232.781 104.716 233.06 104.991 233.418C105.266 233.776 105.437 234.193 105.503 234.671H104.33C104.24 234.323 104.041 234.014 103.733 233.746C103.428 233.474 103.017 233.338 102.5 233.338C102.043 233.338 101.642 233.458 101.297 233.696C100.956 233.931 100.689 234.265 100.497 234.695C100.308 235.123 100.213 235.625 100.213 236.202C100.213 236.792 100.306 237.306 100.492 237.743C100.681 238.181 100.946 238.52 101.287 238.762C101.632 239.004 102.036 239.125 102.5 239.125C102.805 239.125 103.082 239.072 103.331 238.966C103.579 238.86 103.79 238.708 103.962 238.509C104.134 238.31 104.257 238.071 104.33 237.793H105.503C105.437 238.244 105.273 238.65 105.011 239.011C104.752 239.369 104.409 239.654 103.982 239.866C103.558 240.075 103.064 240.179 102.5 240.179ZM108.312 237.236L108.292 235.784H108.531L111.872 232.384H113.323L109.764 235.983H109.664L108.312 237.236ZM107.218 240.02V229.838H108.392V240.02H107.218ZM112.071 240.02L109.088 236.242L109.923 235.426L113.562 240.02H112.071ZM118.155 232.384V233.378H114.197V232.384H118.155ZM115.351 230.554H116.524V237.833C116.524 238.164 116.572 238.413 116.668 238.578C116.767 238.741 116.893 238.85 117.046 238.906C117.202 238.959 117.366 238.986 117.538 238.986C117.667 238.986 117.773 238.979 117.856 238.966C117.939 238.949 118.005 238.936 118.055 238.926L118.294 239.98C118.214 240.01 118.103 240.04 117.961 240.07C117.818 240.103 117.637 240.119 117.419 240.119C117.087 240.119 116.762 240.048 116.444 239.906C116.129 239.763 115.868 239.546 115.659 239.254C115.453 238.963 115.351 238.595 115.351 238.151V230.554ZM123.039 240.179C122.303 240.179 121.669 240.017 121.135 239.692C120.605 239.364 120.195 238.906 119.907 238.32C119.622 237.73 119.479 237.044 119.479 236.261C119.479 235.479 119.622 234.79 119.907 234.193C120.195 233.593 120.596 233.126 121.11 232.791C121.627 232.453 122.23 232.284 122.92 232.284C123.318 232.284 123.71 232.351 124.098 232.483C124.486 232.616 124.839 232.831 125.157 233.129C125.475 233.424 125.729 233.815 125.918 234.303C126.107 234.79 126.201 235.39 126.201 236.102V236.6H120.315V235.585H125.008C125.008 235.154 124.922 234.77 124.749 234.432C124.58 234.094 124.338 233.827 124.024 233.632C123.712 233.436 123.344 233.338 122.92 233.338C122.452 233.338 122.048 233.454 121.707 233.686C121.369 233.915 121.108 234.213 120.926 234.581C120.744 234.949 120.653 235.343 120.653 235.764V236.44C120.653 237.017 120.752 237.506 120.951 237.907C121.153 238.305 121.433 238.608 121.791 238.817C122.149 239.022 122.565 239.125 123.039 239.125C123.347 239.125 123.626 239.082 123.874 238.996C124.126 238.906 124.343 238.774 124.526 238.598C124.708 238.419 124.849 238.197 124.948 237.932L126.082 238.25C125.962 238.635 125.762 238.973 125.48 239.264C125.198 239.553 124.85 239.778 124.436 239.94C124.022 240.1 123.556 240.179 123.039 240.179ZM133.395 234.094L132.341 234.392C132.275 234.217 132.177 234.046 132.048 233.88C131.922 233.711 131.749 233.572 131.531 233.462C131.312 233.353 131.032 233.298 130.69 233.298C130.223 233.298 129.834 233.406 129.522 233.622C129.214 233.834 129.06 234.104 129.06 234.432C129.06 234.724 129.166 234.954 129.378 235.123C129.59 235.292 129.921 235.433 130.372 235.546L131.506 235.824C132.189 235.99 132.697 236.243 133.032 236.585C133.367 236.923 133.534 237.359 133.534 237.892C133.534 238.33 133.408 238.721 133.156 239.065C132.908 239.41 132.56 239.682 132.112 239.881C131.665 240.08 131.144 240.179 130.551 240.179C129.772 240.179 129.128 240.01 128.617 239.672C128.107 239.334 127.784 238.84 127.648 238.19L128.761 237.912C128.867 238.323 129.068 238.631 129.363 238.837C129.661 239.042 130.051 239.145 130.531 239.145C131.078 239.145 131.512 239.029 131.834 238.797C132.159 238.562 132.321 238.28 132.321 237.952C132.321 237.687 132.228 237.465 132.043 237.286C131.857 237.103 131.572 236.967 131.188 236.878L129.915 236.58C129.216 236.414 128.702 236.157 128.374 235.809C128.049 235.458 127.886 235.019 127.886 234.492C127.886 234.061 128.007 233.68 128.249 233.348C128.495 233.017 128.828 232.757 129.249 232.568C129.673 232.379 130.153 232.284 130.69 232.284C131.446 232.284 132.039 232.45 132.47 232.781C132.904 233.113 133.213 233.55 133.395 234.094ZM138.621 232.384V233.378H134.664V232.384H138.621ZM135.817 230.554H136.991V237.833C136.991 238.164 137.039 238.413 137.135 238.578C137.234 238.741 137.36 238.85 137.513 238.906C137.668 238.959 137.833 238.986 138.005 238.986C138.134 238.986 138.24 238.979 138.323 238.966C138.406 238.949 138.472 238.936 138.522 238.926L138.761 239.98C138.681 240.01 138.57 240.04 138.427 240.07C138.285 240.103 138.104 240.119 137.886 240.119C137.554 240.119 137.229 240.048 136.911 239.906C136.596 239.763 136.334 239.546 136.126 239.254C135.92 238.963 135.817 238.595 135.817 238.151V230.554Z" fill="#F7F8F8"/>
<path d="M63.3299 280.667L60.6633 283.333L59.3299 282M62.1607 276.306L62.9746 277C63.1797 277.174 63.4343 277.28 63.7029 277.301L64.7689 277.386C65.3957 277.436 65.8935 277.934 65.9435 278.561L66.0283 279.627C66.0497 279.895 66.1558 280.15 66.3305 280.355L67.0239 281.169C67.4317 281.648 67.4318 282.352 67.0239 282.83L66.3306 283.644C66.1558 283.849 66.0499 284.104 66.0285 284.373L65.9432 285.439C65.8932 286.066 65.3961 286.563 64.7694 286.613L63.703 286.699C63.4344 286.72 63.1795 286.825 62.9745 287L62.1607 287.694C61.6821 288.102 60.9778 288.102 60.4992 287.694L59.6854 287C59.4803 286.825 59.2255 286.72 58.9569 286.698L57.8905 286.613C57.2637 286.563 56.7667 286.066 56.7167 285.439L56.6314 284.373C56.6099 284.104 56.504 283.849 56.3293 283.644L55.6359 282.83C55.2281 282.352 55.2279 281.648 55.6357 281.169L56.3297 280.355C56.5045 280.15 56.6094 279.895 56.6308 279.627L56.7161 278.561C56.7661 277.934 57.2646 277.436 57.8913 277.386L58.9566 277.301C59.2251 277.28 59.4801 277.174 59.6852 277L60.4993 276.306C60.9778 275.898 61.6821 275.898 62.1607 276.306Z" stroke="#8A8F98" stroke-linecap="round" stroke-linejoin="round"/>
<path d="M85.824 281.19C86.6453 281.302 87.322 281.451 87.854 281.638C88.3953 281.825 88.8246 282.114 89.142 282.506C89.4593 282.889 89.618 283.407 89.618 284.06C89.618 284.611 89.4686 285.119 89.17 285.586C88.8713 286.043 88.4233 286.412 87.826 286.692C87.238 286.972 86.5286 287.112 85.698 287.112C84.83 287.112 84.102 286.949 83.514 286.622C82.926 286.286 82.4873 285.847 82.198 285.306C81.918 284.755 81.778 284.163 81.778 283.528H83.178C83.1966 284.144 83.3973 284.69 83.78 285.166C84.172 285.642 84.8113 285.88 85.698 285.88C86.5753 285.88 87.2053 285.707 87.588 285.362C87.9706 285.007 88.162 284.601 88.162 284.144C88.162 283.696 87.98 283.351 87.616 283.108C87.2613 282.856 86.6173 282.674 85.684 282.562C84.4986 282.422 83.6073 282.133 83.01 281.694C82.4126 281.255 82.114 280.625 82.114 279.804C82.114 279.281 82.254 278.81 82.534 278.39C82.8233 277.97 83.2386 277.639 83.78 277.396C84.3306 277.153 84.9746 277.032 85.712 277.032C86.4866 277.032 87.1353 277.177 87.658 277.466C88.1806 277.755 88.568 278.138 88.82 278.614C89.0813 279.09 89.2213 279.608 89.24 280.168H87.882C87.882 279.851 87.8073 279.547 87.658 279.258C87.5086 278.969 87.266 278.731 86.93 278.544C86.6033 278.357 86.188 278.264 85.684 278.264C84.9373 278.264 84.396 278.409 84.06 278.698C83.724 278.987 83.556 279.328 83.556 279.72C83.556 280.084 83.7053 280.392 84.004 280.644C84.312 280.887 84.9186 281.069 85.824 281.19ZM97.2343 283.318C97.2343 283.486 97.2203 283.649 97.1923 283.808H91.8443C91.891 284.405 92.1103 284.9 92.5023 285.292C92.8943 285.684 93.403 285.88 94.0283 285.88C94.495 285.88 94.859 285.773 95.1203 285.558C95.391 285.334 95.5916 285.007 95.7223 284.578H97.1083C96.9496 285.306 96.6043 285.913 96.0723 286.398C95.5496 286.874 94.859 287.112 94.0003 287.112C93.2723 287.112 92.6423 286.949 92.1103 286.622C91.5876 286.295 91.191 285.852 90.9203 285.292C90.6496 284.732 90.5143 284.107 90.5143 283.416C90.5143 282.707 90.659 282.072 90.9483 281.512C91.2376 280.952 91.6436 280.513 92.1663 280.196C92.6983 279.879 93.3003 279.72 93.9723 279.72C94.5323 279.72 95.0596 279.851 95.5543 280.112C96.0583 280.364 96.4643 280.761 96.7723 281.302C97.0803 281.843 97.2343 282.515 97.2343 283.318ZM95.8903 282.688C95.8436 282.147 95.657 281.713 95.3303 281.386C95.0036 281.059 94.5743 280.896 94.0423 280.896C93.417 280.896 92.9316 281.059 92.5863 281.386C92.2503 281.713 92.0263 282.147 91.9143 282.688H95.8903ZM98.1295 283.416C98.1295 282.735 98.2695 282.114 98.5495 281.554C98.8295 280.985 99.2309 280.537 99.7535 280.21C100.286 279.883 100.916 279.72 101.644 279.72C102.269 279.72 102.815 279.851 103.282 280.112C103.758 280.364 104.126 280.705 104.388 281.134C104.649 281.554 104.803 282.016 104.85 282.52H103.534C103.468 282.081 103.272 281.713 102.946 281.414C102.619 281.106 102.19 280.952 101.658 280.952C101.219 280.952 100.832 281.064 100.496 281.288C100.169 281.512 99.9169 281.811 99.7395 282.184C99.5622 282.557 99.4735 282.968 99.4735 283.416C99.4735 283.864 99.5622 284.275 99.7395 284.648C99.9169 285.021 100.169 285.32 100.496 285.544C100.832 285.768 101.219 285.88 101.658 285.88C102.19 285.88 102.619 285.731 102.946 285.432C103.272 285.124 103.468 284.751 103.534 284.312H104.85C104.803 284.816 104.649 285.283 104.388 285.712C104.126 286.132 103.762 286.473 103.296 286.734C102.829 286.986 102.278 287.112 101.644 287.112C100.934 287.112 100.314 286.949 99.7815 286.622C99.2495 286.295 98.8389 285.852 98.5495 285.292C98.2695 284.723 98.1295 284.097 98.1295 283.416ZM108.629 287.112C107.779 287.112 107.121 286.865 106.655 286.37C106.197 285.875 105.969 285.115 105.969 284.088V279.832H107.313V283.808C107.313 284.592 107.457 285.143 107.747 285.46C108.045 285.777 108.451 285.936 108.965 285.936C109.319 285.936 109.66 285.824 109.987 285.6C110.323 285.367 110.593 285.04 110.799 284.62C111.013 284.2 111.121 283.719 111.121 283.178V279.832H112.465V287H111.121V286.524C111.121 286.188 111.172 285.871 111.275 285.572C111.312 285.479 111.331 285.413 111.331 285.376C111.331 285.329 111.307 285.297 111.261 285.278H111.233C111.195 285.278 111.153 285.32 111.107 285.404C110.892 285.833 110.57 286.225 110.141 286.58C109.711 286.935 109.207 287.112 108.629 287.112ZM115.396 281.498C115.442 281.498 115.484 281.456 115.522 281.372C115.69 280.952 115.862 280.63 116.04 280.406C116.217 280.173 116.469 280 116.796 279.888C117.132 279.776 117.594 279.72 118.182 279.72V281.092C118.07 281.083 117.916 281.078 117.72 281.078C116.889 281.078 116.31 281.274 115.984 281.666C115.657 282.049 115.494 282.683 115.494 283.57V287H114.15V279.832H115.494V280.308C115.494 280.588 115.442 280.901 115.34 281.246C115.321 281.321 115.312 281.372 115.312 281.4C115.312 281.456 115.335 281.489 115.382 281.498H115.396ZM125.125 283.318C125.125 283.486 125.111 283.649 125.083 283.808H119.735C119.782 284.405 120.001 284.9 120.393 285.292C120.785 285.684 121.294 285.88 121.919 285.88C122.386 285.88 122.75 285.773 123.011 285.558C123.282 285.334 123.482 285.007 123.613 284.578H124.999C124.84 285.306 124.495 285.913 123.963 286.398C123.44 286.874 122.75 287.112 121.891 287.112C121.163 287.112 120.533 286.949 120.001 286.622C119.478 286.295 119.082 285.852 118.811 285.292C118.54 284.732 118.405 284.107 118.405 283.416C118.405 282.707 118.55 282.072 118.839 281.512C119.128 280.952 119.534 280.513 120.057 280.196C120.589 279.879 121.191 279.72 121.863 279.72C122.423 279.72 122.95 279.851 123.445 280.112C123.949 280.364 124.355 280.761 124.663 281.302C124.971 281.843 125.125 282.515 125.125 283.318ZM123.781 282.688C123.734 282.147 123.548 281.713 123.221 281.386C122.894 281.059 122.465 280.896 121.933 280.896C121.308 280.896 120.822 281.059 120.477 281.386C120.141 281.713 119.917 282.147 119.805 282.688H123.781ZM137.113 279.384C137.113 279.832 137.015 280.219 136.819 280.546C136.623 280.873 136.31 281.176 135.881 281.456C135.461 281.736 134.882 282.025 134.145 282.324C134.929 283.388 135.699 284.2 136.455 284.76C136.725 284.424 136.926 283.99 137.057 283.458C137.187 282.926 137.253 282.389 137.253 281.848H139.913V283.024H138.401C138.335 283.509 138.233 283.929 138.093 284.284C137.962 284.629 137.771 284.993 137.519 285.376C138.116 285.637 138.713 285.768 139.311 285.768H139.913V287H139.171C138.275 287 137.407 286.771 136.567 286.314C135.829 286.846 134.952 287.112 133.935 287.112C133.393 287.112 132.875 287.005 132.381 286.79C131.895 286.566 131.499 286.239 131.191 285.81C130.883 285.371 130.729 284.853 130.729 284.256C130.729 283.743 130.873 283.271 131.163 282.842C131.452 282.403 131.83 282.049 132.297 281.778C132.063 281.405 131.872 281.045 131.723 280.7C131.583 280.345 131.513 279.972 131.513 279.58C131.513 279.095 131.629 278.661 131.863 278.278C132.105 277.895 132.446 277.592 132.885 277.368C133.323 277.144 133.837 277.032 134.425 277.032C134.901 277.023 135.344 277.116 135.755 277.312C136.165 277.508 136.492 277.788 136.735 278.152C136.987 278.507 137.113 278.917 137.113 279.384ZM132.857 279.496C132.847 279.832 132.908 280.163 133.039 280.49C133.067 280.555 133.109 280.663 133.165 280.812C133.23 280.952 133.263 281.055 133.263 281.12C133.263 281.167 133.249 281.204 133.221 281.232C133.146 281.307 133.132 281.367 133.179 281.414C133.197 281.433 133.221 281.442 133.249 281.442C133.295 281.442 133.375 281.405 133.487 281.33C133.608 281.246 133.846 281.125 134.201 280.966C134.779 280.714 135.176 280.481 135.391 280.266C135.615 280.051 135.741 279.776 135.769 279.44C135.787 279.179 135.722 278.955 135.573 278.768C135.433 278.581 135.251 278.441 135.027 278.348C134.812 278.255 134.593 278.208 134.369 278.208C133.958 278.208 133.603 278.315 133.305 278.53C133.015 278.745 132.866 279.067 132.857 279.496ZM132.073 284.382C132.073 284.821 132.236 285.189 132.563 285.488C132.899 285.787 133.384 285.936 134.019 285.936C134.392 285.936 134.737 285.889 135.055 285.796C135.101 285.777 135.162 285.768 135.237 285.768C135.321 285.768 135.395 285.787 135.461 285.824C135.526 285.861 135.577 285.885 135.615 285.894C135.661 285.894 135.694 285.875 135.713 285.838C135.722 285.829 135.727 285.815 135.727 285.796C135.727 285.759 135.699 285.721 135.643 285.684C135.587 285.647 135.545 285.619 135.517 285.6C135.414 285.535 135.321 285.469 135.237 285.404C135.153 285.339 135.064 285.259 134.971 285.166C134.401 284.634 133.874 284.041 133.389 283.388C133.211 283.155 133.155 282.991 133.221 282.898C133.249 282.861 133.267 282.828 133.277 282.8C133.295 282.763 133.291 282.73 133.263 282.702C133.235 282.674 133.207 282.66 133.179 282.66C133.141 282.66 133.081 282.702 132.997 282.786C132.959 282.823 132.885 282.889 132.773 282.982L132.479 283.234C132.339 283.355 132.236 283.509 132.171 283.696C132.105 283.883 132.073 284.111 132.073 284.382ZM152.681 277.144V278.376H149.601V287H148.145V278.376H145.065V277.144H152.681ZM154.825 281.498C154.872 281.498 154.914 281.456 154.951 281.372C155.119 280.952 155.292 280.63 155.469 280.406C155.647 280.173 155.899 280 156.225 279.888C156.561 279.776 157.023 279.72 157.611 279.72V281.092C157.499 281.083 157.345 281.078 157.149 281.078C156.319 281.078 155.74 281.274 155.413 281.666C155.087 282.049 154.923 282.683 154.923 283.57V287H153.579V279.832H154.923V280.308C154.923 280.588 154.872 280.901 154.769 281.246C154.751 281.321 154.741 281.372 154.741 281.4C154.741 281.456 154.765 281.489 154.811 281.498H154.825ZM157.944 284.998C157.944 283.626 158.803 282.879 160.52 282.758L161.332 282.716C161.948 282.697 162.396 282.651 162.676 282.576C162.965 282.501 163.105 282.333 163.096 282.072C163.077 281.288 162.471 280.896 161.276 280.896C160.679 280.896 160.245 280.999 159.974 281.204C159.703 281.4 159.54 281.689 159.484 282.072H158.168C158.289 281.279 158.63 280.691 159.19 280.308C159.75 279.916 160.464 279.72 161.332 279.72C162.275 279.72 163.026 279.953 163.586 280.42C164.155 280.877 164.44 281.708 164.44 282.912V287H163.096V286.314C163.096 286.053 163.147 285.773 163.25 285.474C163.259 285.446 163.269 285.409 163.278 285.362C163.287 285.315 163.287 285.278 163.278 285.25C163.278 285.222 163.264 285.203 163.236 285.194L163.194 285.18C163.147 285.18 163.115 285.203 163.096 285.25C163.087 285.297 163.077 285.325 163.068 285.334C162.863 285.875 162.527 286.309 162.06 286.636C161.593 286.953 161.043 287.112 160.408 287.112C159.96 287.112 159.545 287.023 159.162 286.846C158.789 286.659 158.49 286.407 158.266 286.09C158.051 285.763 157.944 285.399 157.944 284.998ZM163.096 283.136C162.937 283.332 162.713 283.467 162.424 283.542C162.144 283.617 161.724 283.691 161.164 283.766C161.061 283.775 160.875 283.799 160.604 283.836C160.156 283.901 159.825 284.023 159.61 284.2C159.395 284.368 159.288 284.611 159.288 284.928C159.288 285.208 159.391 285.441 159.596 285.628C159.811 285.815 160.123 285.908 160.534 285.908C160.973 285.908 161.383 285.815 161.766 285.628C162.158 285.432 162.475 285.129 162.718 284.718C162.97 284.298 163.096 283.771 163.096 283.136ZM169.843 279.72C170.693 279.72 171.346 279.967 171.803 280.462C172.27 280.957 172.503 281.717 172.503 282.744V287H171.159V283.024C171.159 282.24 171.01 281.689 170.711 281.372C170.422 281.055 170.021 280.896 169.507 280.896C169.153 280.896 168.807 281.013 168.471 281.246C168.145 281.47 167.874 281.792 167.659 282.212C167.454 282.632 167.351 283.113 167.351 283.654V287H166.007V279.832H167.351V280.308C167.351 280.644 167.3 280.961 167.197 281.26C167.169 281.353 167.151 281.423 167.141 281.47C167.141 281.517 167.165 281.545 167.211 281.554H167.239C167.286 281.554 167.328 281.512 167.365 281.428C167.468 281.176 167.636 280.919 167.869 280.658C168.103 280.387 168.387 280.163 168.723 279.986C169.069 279.809 169.442 279.72 169.843 279.72ZM174.832 284.508C174.842 284.713 174.907 284.928 175.028 285.152C175.15 285.367 175.35 285.553 175.63 285.712C175.91 285.861 176.265 285.936 176.694 285.936C177.32 285.936 177.768 285.838 178.038 285.642C178.309 285.446 178.444 285.208 178.444 284.928C178.444 284.713 178.37 284.545 178.22 284.424C178.08 284.293 177.852 284.191 177.534 284.116C177.226 284.041 176.783 283.976 176.204 283.92C175.327 283.827 174.697 283.603 174.314 283.248C173.932 282.893 173.74 282.455 173.74 281.932C173.74 281.559 173.852 281.204 174.076 280.868C174.3 280.523 174.632 280.247 175.07 280.042C175.518 279.827 176.055 279.72 176.68 279.72C177.548 279.72 178.234 279.944 178.738 280.392C179.242 280.831 179.518 281.4 179.564 282.1H178.248C178.22 281.792 178.085 281.517 177.842 281.274C177.6 281.022 177.198 280.896 176.638 280.896C176.106 280.896 175.714 280.989 175.462 281.176C175.21 281.353 175.084 281.573 175.084 281.834C175.084 282.086 175.206 282.287 175.448 282.436C175.691 282.585 176.176 282.697 176.904 282.772C177.894 282.875 178.622 283.08 179.088 283.388C179.555 283.696 179.788 284.139 179.788 284.718C179.788 285.446 179.504 286.029 178.934 286.468C178.374 286.897 177.609 287.112 176.638 287.112C175.677 287.112 174.926 286.879 174.384 286.412C173.843 285.945 173.554 285.311 173.516 284.508H174.832ZM182.363 280.392C182.363 280.625 182.316 280.882 182.223 281.162C182.214 281.181 182.2 281.218 182.181 281.274C182.162 281.321 182.153 281.363 182.153 281.4C182.162 281.428 182.186 281.447 182.223 281.456L182.265 281.47C182.312 281.47 182.354 281.419 182.391 281.316C182.615 280.831 182.932 280.443 183.343 280.154C183.763 279.865 184.248 279.72 184.799 279.72C185.406 279.72 185.947 279.879 186.423 280.196C186.908 280.513 187.286 280.957 187.557 281.526C187.828 282.086 187.963 282.716 187.963 283.416C187.963 284.116 187.828 284.751 187.557 285.32C187.286 285.88 186.908 286.319 186.423 286.636C185.947 286.953 185.406 287.112 184.799 287.112C184.258 287.112 183.777 286.967 183.357 286.678C182.937 286.379 182.615 285.983 182.391 285.488C182.354 285.385 182.307 285.343 182.251 285.362C182.195 285.371 182.167 285.404 182.167 285.46C182.167 285.507 182.186 285.567 182.223 285.642C182.316 285.931 182.363 286.183 182.363 286.398V289.688H181.019V279.832H182.363V280.392ZM184.519 285.88C185.191 285.88 185.709 285.647 186.073 285.18C186.437 284.704 186.619 284.116 186.619 283.416C186.619 282.716 186.437 282.133 186.073 281.666C185.709 281.19 185.191 280.952 184.519 280.952C184.108 280.952 183.735 281.064 183.399 281.288C183.072 281.512 182.816 281.815 182.629 282.198C182.452 282.571 182.363 282.977 182.363 283.416C182.363 283.855 182.452 284.265 182.629 284.648C182.816 285.021 183.072 285.32 183.399 285.544C183.735 285.768 184.108 285.88 184.519 285.88ZM188.856 284.998C188.856 283.626 189.715 282.879 191.432 282.758L192.244 282.716C192.86 282.697 193.308 282.651 193.588 282.576C193.877 282.501 194.017 282.333 194.008 282.072C193.989 281.288 193.383 280.896 192.188 280.896C191.591 280.896 191.157 280.999 190.886 281.204C190.615 281.4 190.452 281.689 190.396 282.072H189.08C189.201 281.279 189.542 280.691 190.102 280.308C190.662 279.916 191.376 279.72 192.244 279.72C193.187 279.72 193.938 279.953 194.498 280.42C195.067 280.877 195.352 281.708 195.352 282.912V287H194.008V286.314C194.008 286.053 194.059 285.773 194.162 285.474C194.171 285.446 194.181 285.409 194.19 285.362C194.199 285.315 194.199 285.278 194.19 285.25C194.19 285.222 194.176 285.203 194.148 285.194L194.106 285.18C194.059 285.18 194.027 285.203 194.008 285.25C193.999 285.297 193.989 285.325 193.98 285.334C193.775 285.875 193.439 286.309 192.972 286.636C192.505 286.953 191.955 287.112 191.32 287.112C190.872 287.112 190.457 287.023 190.074 286.846C189.701 286.659 189.402 286.407 189.178 286.09C188.963 285.763 188.856 285.399 188.856 284.998ZM194.008 283.136C193.849 283.332 193.625 283.467 193.336 283.542C193.056 283.617 192.636 283.691 192.076 283.766C191.973 283.775 191.787 283.799 191.516 283.836C191.068 283.901 190.737 284.023 190.522 284.2C190.307 284.368 190.2 284.611 190.2 284.928C190.2 285.208 190.303 285.441 190.508 285.628C190.723 285.815 191.035 285.908 191.446 285.908C191.885 285.908 192.295 285.815 192.678 285.628C193.07 285.432 193.387 285.129 193.63 284.718C193.882 284.298 194.008 283.771 194.008 283.136ZM198.165 281.498C198.212 281.498 198.254 281.456 198.291 281.372C198.459 280.952 198.632 280.63 198.809 280.406C198.987 280.173 199.239 280 199.565 279.888C199.901 279.776 200.363 279.72 200.951 279.72V281.092C200.839 281.083 200.685 281.078 200.489 281.078C199.659 281.078 199.08 281.274 198.753 281.666C198.427 282.049 198.263 282.683 198.263 283.57V287H196.919V279.832H198.263V280.308C198.263 280.588 198.212 280.901 198.109 281.246C198.091 281.321 198.081 281.372 198.081 281.4C198.081 281.456 198.105 281.489 198.151 281.498H198.165ZM207.894 283.318C207.894 283.486 207.88 283.649 207.852 283.808H202.504C202.551 284.405 202.77 284.9 203.162 285.292C203.554 285.684 204.063 285.88 204.688 285.88C205.155 285.88 205.519 285.773 205.78 285.558C206.051 285.334 206.252 285.007 206.382 284.578H207.768C207.61 285.306 207.264 285.913 206.732 286.398C206.21 286.874 205.519 287.112 204.66 287.112C203.932 287.112 203.302 286.949 202.77 286.622C202.248 286.295 201.851 285.852 201.58 285.292C201.31 284.732 201.174 284.107 201.174 283.416C201.174 282.707 201.319 282.072 201.608 281.512C201.898 280.952 202.304 280.513 202.826 280.196C203.358 279.879 203.96 279.72 204.632 279.72C205.192 279.72 205.72 279.851 206.214 280.112C206.718 280.364 207.124 280.761 207.432 281.302C207.74 281.843 207.894 282.515 207.894 283.318ZM206.55 282.688C206.504 282.147 206.317 281.713 205.99 281.386C205.664 281.059 205.234 280.896 204.702 280.896C204.077 280.896 203.592 281.059 203.246 281.386C202.91 281.713 202.686 282.147 202.574 282.688H206.55ZM212.855 279.72C213.704 279.72 214.358 279.967 214.815 280.462C215.282 280.957 215.515 281.717 215.515 282.744V287H214.171V283.024C214.171 282.24 214.022 281.689 213.723 281.372C213.434 281.055 213.032 280.896 212.519 280.896C212.164 280.896 211.819 281.013 211.483 281.246C211.156 281.47 210.886 281.792 210.671 282.212C210.466 282.632 210.363 283.113 210.363 283.654V287H209.019V279.832H210.363V280.308C210.363 280.644 210.312 280.961 210.209 281.26C210.181 281.353 210.162 281.423 210.153 281.47C210.153 281.517 210.176 281.545 210.223 281.554H210.251C210.298 281.554 210.34 281.512 210.377 281.428C210.48 281.176 210.648 280.919 210.881 280.658C211.114 280.387 211.399 280.163 211.735 279.986C212.08 279.809 212.454 279.72 212.855 279.72ZM218.992 281.008V284.76C218.992 285.171 219.053 285.451 219.174 285.6C219.305 285.749 219.561 285.824 219.944 285.824H221.008V287H219.832C219.076 287 218.521 286.841 218.166 286.524C217.821 286.207 217.648 285.665 217.648 284.9V281.008H216.304V279.832H217.648V277.816H218.992V279.832H221.008V281.008H218.992Z" fill="#F7F8F8"/>
</g>
<path d="M60.89 84.46H62.21V90.94C62.21 93.67 60.575 95.14 58.25 95.14C55.91 95.14 54.29 93.67 54.29 90.94V84.46H55.61V91.06C55.61 93.265 56.93 94.06 58.25 94.06C59.51 94.06 60.89 93.25 60.89 91.06V84.46ZM68.0037 87.22C69.7737 87.22 70.8537 88.21 70.8537 90.46V95.02H69.6537V90.52C69.6537 88.735 68.8437 88.24 67.7787 88.24C66.6087 88.24 65.3337 89.365 65.3337 91.195V95.02H64.1337V87.34H65.3337V87.985C65.3337 88.255 65.2887 88.495 65.1837 88.81C65.1387 88.93 65.0637 89.065 65.1837 89.11C65.2737 89.14 65.3337 89.05 65.3487 89.005C65.6637 88.255 66.6237 87.22 68.0037 87.22ZM72.4101 84.22H73.6101V95.02H72.4101V84.22ZM81.7758 90.955C81.7758 91.165 81.7608 91.345 81.7458 91.48H75.9858C76.0458 92.83 76.9458 94.06 78.4758 94.06C79.5708 94.06 80.1108 93.37 80.3808 92.5H81.6408C81.3708 93.775 80.3208 95.14 78.4308 95.14C76.0908 95.14 74.8158 93.295 74.8158 91.18C74.8158 88.825 76.2708 87.22 78.4008 87.22C80.0508 87.22 81.7758 88.315 81.7758 90.955ZM78.4908 88.24C76.8558 88.24 76.2108 89.26 76.0458 90.52H80.5758C80.4708 89.11 79.6908 88.24 78.4908 88.24ZM82.7406 92.875C82.7406 91.18 84.0906 90.655 85.4406 90.535C86.8506 90.415 88.2756 90.535 88.2606 89.68C88.2456 89.08 87.9456 88.24 86.1906 88.24C84.8406 88.24 84.2556 88.93 84.1506 89.62H82.9806C83.2506 87.925 84.6606 87.22 86.3106 87.22C88.0356 87.22 89.4606 87.82 89.4606 90.64V95.02H88.2606V94.165C88.2606 93.865 88.3056 93.64 88.4106 93.325C88.4556 93.205 88.5006 93.07 88.3806 93.04C88.2906 93.01 88.2456 93.115 88.2306 93.175C87.8256 94.39 86.6706 95.14 85.2606 95.14C83.8956 95.14 82.7406 94.195 82.7406 92.875ZM88.2606 90.73C87.8106 91.255 86.6406 91.315 85.4706 91.51C84.5406 91.66 83.9406 92.005 83.9406 92.8C83.9406 93.535 84.5106 94.24 85.7556 94.12C87.1956 93.985 88.2456 92.86 88.2606 90.73ZM90.6654 92.38H91.8354C91.8504 93.205 92.3904 94.12 93.9504 94.12C95.4804 94.12 95.9454 93.355 95.9454 92.86C95.9454 92.11 95.4354 91.84 93.3954 91.6C91.7454 91.405 90.8904 90.595 90.8904 89.59C90.8904 88.435 91.9554 87.22 93.9354 87.22C95.8104 87.22 96.8154 88.3 96.9204 89.74H95.7354C95.6904 89.005 95.3004 88.24 93.8904 88.24C92.5554 88.24 92.0904 88.93 92.0904 89.44C92.0904 89.875 92.2254 90.37 94.1904 90.61C96.0054 90.835 97.1454 91.405 97.1454 92.635C97.1454 94.195 95.8704 95.14 93.8904 95.14C91.9254 95.14 90.7404 94.075 90.6654 92.38ZM102.34 87.22C104.11 87.22 105.19 88.21 105.19 90.46V95.02H103.99V90.52C103.99 88.735 103.18 88.24 102.115 88.24C100.945 88.24 99.6697 89.365 99.6697 91.195V95.02H98.4697V84.22H99.6697V87.985C99.6697 88.255 99.6247 88.495 99.5197 88.81C99.4747 88.93 99.3997 89.065 99.5197 89.11C99.6097 89.14 99.6697 89.05 99.6847 89.005C99.9997 88.255 100.96 87.22 102.34 87.22ZM110.708 84.46H112.268L114.953 88.81C115.058 88.975 115.118 89.125 115.133 89.305C115.133 89.38 115.178 89.44 115.268 89.44C115.358 89.44 115.403 89.38 115.403 89.305C115.418 89.125 115.478 88.975 115.583 88.81L118.268 84.46H119.828L115.928 90.52V95.02H114.608V90.52L110.708 84.46ZM122.947 87.22C125.197 87.22 126.547 89.005 126.547 91.18C126.547 93.355 125.197 95.14 122.947 95.14C120.697 95.14 119.347 93.355 119.347 91.18C119.347 89.005 120.697 87.22 122.947 87.22ZM122.947 94.06C124.462 94.06 125.347 92.77 125.347 91.18C125.347 89.59 124.462 88.3 122.947 88.3C121.432 88.3 120.547 89.59 120.547 91.18C120.547 92.77 121.432 94.06 122.947 94.06ZM130.596 95.14C128.826 95.14 127.746 94.15 127.746 91.9V87.34H128.946V91.84C128.946 93.625 129.756 94.12 130.821 94.12C131.991 94.12 133.266 92.995 133.266 91.165V87.34H134.466V95.02H133.266V94.375C133.266 94.105 133.296 93.865 133.416 93.55C133.461 93.43 133.536 93.295 133.416 93.25C133.326 93.22 133.266 93.31 133.251 93.355C132.996 94.12 131.976 95.14 130.596 95.14ZM137.343 89.11C137.433 89.125 137.463 89.05 137.493 88.99C138.003 87.745 138.408 87.22 140.343 87.22V88.45C138.108 88.3 137.463 89.095 137.463 91.105V95.02H136.263V87.34H137.463V87.94C137.463 88.225 137.433 88.48 137.313 88.84C137.268 88.96 137.223 89.095 137.343 89.11ZM146.11 89.74C146.11 86.755 147.91 84.34 151.09 84.34C154.27 84.34 155.575 86.605 155.71 88.3H154.405C154.255 86.92 153.235 85.42 151.15 85.42C148.78 85.42 147.43 87.34 147.43 89.74C147.43 92.14 148.78 94.06 151.15 94.06C153.235 94.06 154.255 92.56 154.405 91.18H155.71C155.575 92.875 154.27 95.14 151.09 95.14C147.91 95.14 146.11 92.725 146.11 89.74ZM158.231 89.11C158.321 89.125 158.351 89.05 158.381 88.99C158.891 87.745 159.296 87.22 161.231 87.22V88.45C158.996 88.3 158.351 89.095 158.351 91.105V95.02H157.151V87.34H158.351V87.94C158.351 88.225 158.321 88.48 158.201 88.84C158.156 88.96 158.111 89.095 158.231 89.11ZM161.714 87.34H163.034L165.299 93.385C165.359 93.565 165.404 93.745 165.404 93.97C165.404 94.06 165.419 94.165 165.524 94.165C165.629 94.165 165.644 94.06 165.644 93.97C165.644 93.745 165.689 93.58 165.749 93.4L167.834 87.34H169.154L165.944 95.935C165.419 97.36 164.714 97.9 163.334 97.9H162.404V96.82H163.214C164.354 96.82 164.594 96.355 164.789 95.77L164.924 95.365L161.714 87.34ZM171.315 87.34V87.94C171.315 88.21 171.285 88.465 171.18 88.765C171.135 88.9 171.045 89.035 171.18 89.08C171.27 89.11 171.33 88.975 171.345 88.93C171.795 87.94 172.695 87.22 173.925 87.22C175.92 87.22 177.315 88.9 177.315 91.18C177.315 93.46 175.92 95.14 173.925 95.14C172.725 95.14 171.81 94.435 171.345 93.4C171.33 93.355 171.27 93.235 171.165 93.28C171.075 93.325 171.12 93.445 171.165 93.565C171.285 93.895 171.315 94.105 171.315 94.36V97.9H170.115V87.34H171.315ZM173.745 94.06C175.305 94.06 176.115 92.74 176.115 91.18C176.115 89.62 175.305 88.3 173.745 88.3C172.32 88.3 171.315 89.62 171.315 91.18C171.315 92.74 172.32 94.06 173.745 94.06ZM182.721 88.36H180.561V92.86C180.561 93.73 180.741 94 181.581 94H182.721V95.02H181.581C179.991 95.02 179.361 94.555 179.361 92.77V88.36H177.921V87.34H179.361V85.18H180.561V87.34H182.721V88.36ZM187.034 87.22C189.284 87.22 190.634 89.005 190.634 91.18C190.634 93.355 189.284 95.14 187.034 95.14C184.784 95.14 183.434 93.355 183.434 91.18C183.434 89.005 184.784 87.22 187.034 87.22ZM187.034 94.06C188.549 94.06 189.434 92.77 189.434 91.18C189.434 89.59 188.549 88.3 187.034 88.3C185.519 88.3 184.634 89.59 184.634 91.18C184.634 92.77 185.519 94.06 187.034 94.06ZM196.158 84.46H197.598L199.668 93.505C199.713 93.685 199.728 93.865 199.728 94.09C199.728 94.18 199.758 94.24 199.848 94.24C199.923 94.24 199.968 94.18 199.968 94.09C199.968 93.865 199.983 93.685 200.028 93.505L202.098 84.46H203.418L205.488 93.505C205.533 93.685 205.548 93.865 205.548 94.09C205.548 94.18 205.593 94.24 205.668 94.24C205.758 94.24 205.788 94.18 205.788 94.09C205.788 93.865 205.803 93.685 205.848 93.505L207.918 84.46H209.358L206.718 95.02H204.678L202.938 87.19C202.893 87.01 202.878 86.785 202.878 86.5C202.878 86.41 202.848 86.35 202.758 86.35C202.668 86.35 202.638 86.41 202.638 86.5C202.638 86.785 202.623 87.01 202.578 87.19L200.838 95.02H198.798L196.158 84.46ZM209.113 92.875C209.113 91.18 210.463 90.655 211.813 90.535C213.223 90.415 214.648 90.535 214.633 89.68C214.618 89.08 214.318 88.24 212.563 88.24C211.213 88.24 210.628 88.93 210.523 89.62H209.353C209.623 87.925 211.033 87.22 212.683 87.22C214.408 87.22 215.833 87.82 215.833 90.64V95.02H214.633V94.165C214.633 93.865 214.678 93.64 214.783 93.325C214.828 93.205 214.873 93.07 214.753 93.04C214.663 93.01 214.618 93.115 214.603 93.175C214.198 94.39 213.043 95.14 211.633 95.14C210.268 95.14 209.113 94.195 209.113 92.875ZM214.633 90.73C214.183 91.255 213.013 91.315 211.843 91.51C210.913 91.66 210.313 92.005 210.313 92.8C210.313 93.535 210.883 94.24 212.128 94.12C213.568 93.985 214.618 92.86 214.633 90.73ZM218.598 89.11C218.688 89.125 218.718 89.05 218.748 88.99C219.258 87.745 219.663 87.22 221.598 87.22V88.45C219.363 88.3 218.718 89.095 218.718 91.105V95.02H217.518V87.34H218.718V87.94C218.718 88.225 218.688 88.48 218.568 88.84C218.523 88.96 218.478 89.095 218.598 89.11ZM223.754 89.11C223.844 89.125 223.874 89.05 223.904 88.99C224.414 87.745 224.819 87.22 226.754 87.22V88.45C224.519 88.3 223.874 89.095 223.874 91.105V95.02H222.674V87.34H223.874V87.94C223.874 88.225 223.844 88.48 223.724 88.84C223.679 88.96 223.634 89.095 223.754 89.11ZM227.902 85.78V84.22H229.222V85.78H227.902ZM227.962 95.02V87.34H229.162V95.02H227.962ZM233.968 87.22C236.218 87.22 237.568 89.005 237.568 91.18C237.568 93.355 236.218 95.14 233.968 95.14C231.718 95.14 230.368 93.355 230.368 91.18C230.368 89.005 231.718 87.22 233.968 87.22ZM233.968 94.06C235.483 94.06 236.368 92.77 236.368 91.18C236.368 89.59 235.483 88.3 233.968 88.3C232.453 88.3 231.568 89.59 231.568 91.18C231.568 92.77 232.453 94.06 233.968 94.06ZM239.852 89.11C239.942 89.125 239.972 89.05 240.002 88.99C240.512 87.745 240.917 87.22 242.852 87.22V88.45C240.617 88.3 239.972 89.095 239.972 91.105V95.02H238.772V87.34H239.972V87.94C239.972 88.225 239.942 88.48 239.822 88.84C239.777 88.96 239.732 89.095 239.852 89.11ZM252.835 89.035C255.04 89.335 256.78 89.77 256.78 91.99C256.78 93.7 255.355 95.14 252.7 95.14C249.76 95.14 248.62 93.25 248.62 91.3H249.94C249.97 92.56 250.435 94.06 252.7 94.06C254.89 94.06 255.46 92.965 255.46 92.08C255.46 91.15 254.875 90.565 252.685 90.265C250.345 89.95 248.965 89.02 248.965 87.22C248.965 85.57 250.36 84.34 252.715 84.34C255.37 84.34 256.345 85.99 256.39 87.7H255.1C255.1 86.59 254.53 85.42 252.685 85.42C250.795 85.42 250.285 86.38 250.285 87.13C250.285 87.775 250.57 88.72 252.835 89.035ZM259.426 87.34V87.94C259.426 88.21 259.396 88.465 259.291 88.765C259.246 88.9 259.156 89.035 259.291 89.08C259.381 89.11 259.441 88.975 259.456 88.93C259.906 87.94 260.806 87.22 262.036 87.22C264.031 87.22 265.426 88.9 265.426 91.18C265.426 93.46 264.031 95.14 262.036 95.14C260.836 95.14 259.921 94.435 259.456 93.4C259.441 93.355 259.381 93.235 259.276 93.28C259.186 93.325 259.231 93.445 259.276 93.565C259.396 93.895 259.426 94.105 259.426 94.36V97.9H258.226V87.34H259.426ZM261.856 94.06C263.416 94.06 264.226 92.74 264.226 91.18C264.226 89.62 263.416 88.3 261.856 88.3C260.431 88.3 259.426 89.62 259.426 91.18C259.426 92.74 260.431 94.06 261.856 94.06ZM266.691 85.78V84.22H268.011V85.78H266.691ZM266.751 95.02V87.34H267.951V95.02H266.751ZM270.834 89.11C270.924 89.125 270.954 89.05 270.984 88.99C271.494 87.745 271.899 87.22 273.834 87.22V88.45C271.599 88.3 270.954 89.095 270.954 91.105V95.02H269.754V87.34H270.954V87.94C270.954 88.225 270.924 88.48 270.804 88.84C270.759 88.96 270.714 89.095 270.834 89.11ZM274.982 85.78V84.22H276.302V85.78H274.982ZM275.042 95.02V87.34H276.242V95.02H275.042ZM282.008 88.36H279.848V92.86C279.848 93.73 280.028 94 280.868 94H282.008V95.02H280.868C279.278 95.02 278.648 94.555 278.648 92.77V88.36H277.208V87.34H278.648V85.18H279.848V87.34H282.008V88.36ZM287.529 87.34H288.849L290.589 93.76C290.634 93.895 290.649 94 290.649 94.09C290.649 94.18 290.649 94.285 290.769 94.285C290.889 94.285 290.889 94.18 290.889 94.09C290.889 94 290.904 93.895 290.949 93.76L292.569 87.34H294.009L295.629 93.76C295.674 93.895 295.689 94 295.689 94.09C295.689 94.18 295.689 94.285 295.809 94.285C295.929 94.285 295.929 94.18 295.929 94.09C295.929 94 295.944 93.895 295.989 93.76L297.729 87.34H299.049L296.709 95.02H294.909L293.469 89.215C293.424 89.035 293.409 88.84 293.409 88.63C293.409 88.54 293.409 88.435 293.289 88.435C293.169 88.435 293.169 88.54 293.169 88.63C293.169 88.84 293.154 89.035 293.109 89.215L291.669 95.02H289.869L287.529 87.34ZM299.826 85.78V84.22H301.146V85.78H299.826ZM299.886 95.02V87.34H301.086V95.02H299.886ZM306.851 88.36H304.691V92.86C304.691 93.73 304.871 94 305.711 94H306.851V95.02H305.711C304.121 95.02 303.491 94.555 303.491 92.77V88.36H302.051V87.34H303.491V85.18H304.691V87.34H306.851V88.36ZM312.281 87.22C314.051 87.22 315.131 88.21 315.131 90.46V95.02H313.931V90.52C313.931 88.735 313.121 88.24 312.056 88.24C310.886 88.24 309.611 89.365 309.611 91.195V95.02H308.411V84.22H309.611V87.985C309.611 88.255 309.566 88.495 309.461 88.81C309.416 88.93 309.341 89.065 309.461 89.11C309.551 89.14 309.611 89.05 309.626 89.005C309.941 88.255 310.901 87.22 312.281 87.22ZM326.274 84.46H327.609V91.36C327.609 93.73 326.424 95.14 324.369 95.14C322.284 95.14 321.129 93.76 321.129 91.36H322.449C322.449 93.34 323.304 94.06 324.369 94.06C325.284 94.06 326.274 93.4 326.274 91.48V84.46ZM335.765 90.955C335.765 91.165 335.75 91.345 335.735 91.48H329.975C330.035 92.83 330.935 94.06 332.465 94.06C333.56 94.06 334.1 93.37 334.37 92.5H335.63C335.36 93.775 334.31 95.14 332.42 95.14C330.08 95.14 328.805 93.295 328.805 91.18C328.805 88.825 330.26 87.22 332.39 87.22C334.04 87.22 335.765 88.315 335.765 90.955ZM332.48 88.24C330.845 88.24 330.2 89.26 330.035 90.52H334.565C334.46 89.11 333.68 88.24 332.48 88.24ZM343.69 90.955C343.69 91.165 343.675 91.345 343.66 91.48H337.9C337.96 92.83 338.86 94.06 340.39 94.06C341.485 94.06 342.025 93.37 342.295 92.5H343.555C343.285 93.775 342.235 95.14 340.345 95.14C338.005 95.14 336.73 93.295 336.73 91.18C336.73 88.825 338.185 87.22 340.315 87.22C341.965 87.22 343.69 88.315 343.69 90.955ZM340.405 88.24C338.77 88.24 338.125 89.26 337.96 90.52H342.49C342.385 89.11 341.605 88.24 340.405 88.24ZM348.731 88.36H346.571V92.86C346.571 93.73 346.751 94 347.591 94H348.731V95.02H347.591C346.001 95.02 345.371 94.555 345.371 92.77V88.36H343.931V87.34H345.371V85.18H346.571V87.34H348.731V88.36ZM354.143 89.035C356.348 89.335 358.088 89.77 358.088 91.99C358.088 93.7 356.663 95.14 354.008 95.14C351.068 95.14 349.928 93.25 349.928 91.3H351.248C351.278 92.56 351.743 94.06 354.008 94.06C356.198 94.06 356.768 92.965 356.768 92.08C356.768 91.15 356.183 90.565 353.993 90.265C351.653 89.95 350.273 89.02 350.273 87.22C350.273 85.57 351.668 84.34 354.023 84.34C356.678 84.34 357.653 85.99 357.698 87.7H356.408C356.408 86.59 355.838 85.42 353.993 85.42C352.103 85.42 351.593 86.38 351.593 87.13C351.593 87.775 351.878 88.72 354.143 89.035ZM363.404 87.22C365.174 87.22 366.254 88.21 366.254 90.46V95.02H365.054V90.52C365.054 88.735 364.244 88.24 363.179 88.24C362.009 88.24 360.734 89.365 360.734 91.195V95.02H359.534V87.34H360.734V87.985C360.734 88.255 360.689 88.495 360.584 88.81C360.539 88.93 360.464 89.065 360.584 89.11C360.674 89.14 360.734 89.05 360.749 89.005C361.064 88.255 362.024 87.22 363.404 87.22ZM367.75 85.78V84.22H369.07V85.78H367.75ZM367.81 95.02V87.34H369.01V95.02H367.81ZM372.013 87.34V87.94C372.013 88.21 371.983 88.465 371.878 88.765C371.833 88.9 371.743 89.035 371.878 89.08C371.968 89.11 372.028 88.975 372.043 88.93C372.493 87.94 373.393 87.22 374.623 87.22C376.618 87.22 378.013 88.9 378.013 91.18C378.013 93.46 376.618 95.14 374.623 95.14C373.423 95.14 372.508 94.435 372.043 93.4C372.028 93.355 371.968 93.235 371.863 93.28C371.773 93.325 371.818 93.445 371.863 93.565C371.983 93.895 372.013 94.105 372.013 94.36V97.9H370.813V87.34H372.013ZM374.443 94.06C376.003 94.06 376.813 92.74 376.813 91.18C376.813 89.62 376.003 88.3 374.443 88.3C373.018 88.3 372.013 89.62 372.013 91.18C372.013 92.74 373.018 94.06 374.443 94.06ZM385.995 90.955C385.995 91.165 385.98 91.345 385.965 91.48H380.205C380.265 92.83 381.165 94.06 382.695 94.06C383.79 94.06 384.33 93.37 384.6 92.5H385.86C385.59 93.775 384.54 95.14 382.65 95.14C380.31 95.14 379.035 93.295 379.035 91.18C379.035 88.825 380.49 87.22 382.62 87.22C384.27 87.22 385.995 88.315 385.995 90.955ZM382.71 88.24C381.075 88.24 380.43 89.26 380.265 90.52H384.795C384.69 89.11 383.91 88.24 382.71 88.24ZM388.285 89.11C388.375 89.125 388.405 89.05 388.435 88.99C388.945 87.745 389.35 87.22 391.285 87.22V88.45C389.05 88.3 388.405 89.095 388.405 91.105V95.02H387.205V87.34H388.405V87.94C388.405 88.225 388.375 88.48 388.255 88.84C388.21 88.96 388.165 89.095 388.285 89.11Z" fill="#8A8F98"/>
<rect x="32.83" y="26.28" width="639" height="279.47" rx="7.5" stroke="white" stroke-opacity="0.1" shape-rendering="crispEdges"/>
</g>
<defs>
<filter id="filter0_d_7_2902" x="0.329971" y="0.779968" width="704" height="344.47" filterUnits="userSpaceOnUse" color-interpolation-filters="sRGB">
<feFlood flood-opacity="0" result="BackgroundImageFix"/>
<feColorMatrix in="SourceAlpha" type="matrix" values="0 0 0 0 0 0 0 0 0 0 0 0 0 0 0 0 0 0 127 0" result="hardAlpha"/>
<feOffset dy="7"/>
<feGaussianBlur stdDeviation="16"/>
<feComposite in2="hardAlpha" operator="out"/>
<feColorMatrix type="matrix" values="0 0 0 0 0 0 0 0 0 0 0 0 0 0 0 0 0 0 0.35 0"/>
<feBlend mode="normal" in2="BackgroundImageFix" result="effect1_dropShadow_7_2902"/>
<feBlend mode="normal" in="SourceGraphic" in2="effect1_dropShadow_7_2902" result="shape"/>
</filter>
<filter id="filter1_d_7_2902" x="33.33" y="120.25" width="638" height="185" filterUnits="userSpaceOnUse" color-interpolation-filters="sRGB">
<feFlood flood-opacity="0" result="BackgroundImageFix"/>
<feColorMatrix in="SourceAlpha" type="matrix" values="0 0 0 0 0 0 0 0 0 0 0 0 0 0 0 0 0 0 127 0" result="hardAlpha"/>
<feOffset dy="-1"/>
<feComposite in2="hardAlpha" operator="out"/>
<feColorMatrix type="matrix" values="0 0 0 0 1 0 0 0 0 1 0 0 0 0 1 0 0 0 0.1 0"/>
<feBlend mode="normal" in2="BackgroundImageFix" result="effect1_dropShadow_7_2902"/>
<feBlend mode="normal" in="SourceGraphic" in2="effect1_dropShadow_7_2902" result="shape"/>
</filter>
<clipPath id="clip0_7_2902">
<rect width="638" height="184" fill="white" transform="translate(33.33 121.25)"/>
</clipPath>
<clipPath id="clip1_7_2902">
<rect width="16" height="16" fill="white" transform="translate(53.33 182.25)"/>
</clipPath>
</defs>
</svg>
