<svg width="303" height="303" viewBox="0 0 303 303" fill="none" xmlns="http://www.w3.org/2000/svg">
<g opacity="0.4">
<path d="M11.8298 185.871C11.0409 182.669 14.8439 180.654 17.1758 182.986L119.63 285.44C121.962 287.772 119.947 291.575 116.745 290.786C65.1573 278.066 24.5497 237.459 11.8298 185.871Z" stroke="url(#paint0_linear_7_2876)" stroke-width="15.2355"/>
<path d="M7.95659 142.092C7.92751 142.566 7.99981 143.041 8.16868 143.485C8.33755 143.929 8.5991 144.331 8.93589 144.666L157.949 293.68C158.284 294.017 158.686 294.278 159.13 294.447C159.574 294.616 160.049 294.688 160.523 294.659C166.851 294.256 173.146 293.434 179.365 292.2C181.956 291.685 182.856 288.507 180.988 286.639L15.9763 121.627C14.1083 119.759 10.9309 120.658 10.4163 123.249C9.18185 129.469 8.36016 135.764 7.95659 142.092Z" stroke="url(#paint1_linear_7_2876)" stroke-width="15.2355"/>
<path d="M20.1593 92.708C19.885 93.3263 19.8051 94.0133 19.9302 94.678C20.0554 95.3427 20.3797 95.9537 20.8602 96.4297L206.185 281.756C206.661 282.237 207.272 282.561 207.937 282.686C208.601 282.811 209.288 282.731 209.907 282.456C214.702 280.306 219.376 277.894 223.905 275.229C225.779 274.127 226.067 271.559 224.53 270.022L32.5939 78.0845C31.0569 76.5474 28.4889 76.8352 27.3868 78.7092C24.7225 83.2392 22.3096 87.9126 20.1593 92.708Z" stroke="url(#paint2_linear_7_2876)" stroke-width="15.2355"/>
<path d="M44.5894 60.0001C43.3367 58.7474 43.2589 56.7371 44.443 55.4193C70.7248 26.1926 108.832 7.81268 151.231 7.81268C230.523 7.81268 294.802 72.0919 294.802 151.384C294.802 193.784 276.422 231.891 247.195 258.173C245.877 259.357 243.868 259.279 242.614 258.026L44.5894 60.0001Z" stroke="url(#paint3_linear_7_2876)" stroke-width="15.2355"/>
</g>
<defs>
<linearGradient id="paint0_linear_7_2876" x1="151.336" y1="7.81273" x2="151.336" y2="203.335" gradientUnits="userSpaceOnUse">
<stop stop-color="#6663F6"/>
<stop offset="1" stop-color="#6663F6" stop-opacity="0"/>
</linearGradient>
<linearGradient id="paint1_linear_7_2876" x1="151.335" y1="7.81268" x2="151.335" y2="203.334" gradientUnits="userSpaceOnUse">
<stop stop-color="#6663F6"/>
<stop offset="1" stop-color="#6663F6" stop-opacity="0"/>
</linearGradient>
<linearGradient id="paint2_linear_7_2876" x1="151.335" y1="7.81265" x2="151.335" y2="203.334" gradientUnits="userSpaceOnUse">
<stop stop-color="#6663F6"/>
<stop offset="1" stop-color="#6663F6" stop-opacity="0"/>
</linearGradient>
<linearGradient id="paint3_linear_7_2876" x1="151.335" y1="7.81268" x2="151.335" y2="203.335" gradientUnits="userSpaceOnUse">
<stop stop-color="#6663F6"/>
<stop offset="1" stop-color="#6663F6" stop-opacity="0"/>
</linearGradient>
</defs>
</svg>
